<svg
          width="21"
          height="21"
          viewBox="0 0 21 21"
          fill="none"
          className="stroke-[#111] dark:stroke-[#e7e7e7]"
          xmlns="http://www.w3.org/2000/svg"
        >
          <path
            d="M5.16667 6.5H10.1667M5.16667 10H13.1667M5.16667 16V18.3355C5.16667 18.8684 5.16667 19.1348 5.2759 19.2716C5.37089 19.3906 5.51494 19.4599 5.66721 19.4597C5.8423 19.4595 6.05034 19.2931 6.46643 18.9602L8.85188 17.0518C9.33919 16.662 9.58284 16.4671 9.85416 16.3285C10.0949 16.2055 10.3511 16.1156 10.6159 16.0613C10.9143 16 11.2264 16 11.8504 16H14.3667C16.0468 16 16.8869 16 17.5286 15.673C18.0931 15.3854 18.5521 14.9265 18.8397 14.362C19.1667 13.7202 19.1667 12.8802 19.1667 11.2V5.8C19.1667 4.11984 19.1667 3.27976 18.8397 2.63803C18.5521 2.07354 18.0931 1.6146 17.5286 1.32698C16.8869 1 16.0468 1 14.3667 1H5.96667C4.28651 1 3.44644 1 2.8047 1.32698C2.24021 1.6146 1.78127 2.07354 1.49365 2.63803C1.16667 3.27976 1.16667 4.11984 1.16667 5.8V12C1.16667 12.93 1.16667 13.395 1.26889 13.7765C1.5463 14.8117 2.35494 15.6204 3.39021 15.8978C3.77171 16 4.2367 16 5.16667 16Z"
            strokeWidth="2"
            stroke="#9AA4B2"
            strokeLinecap="round"
            strokeLinejoin="round"
          />
        </svg>