<svg width="12" height="12" viewBox="0 0 12 12" fill="none" xmlns="http://www.w3.org/2000/svg">
<path fill-rule="evenodd" clip-rule="evenodd" d="M7.56707 1.07715C6.66407 0.307616 5.33593 0.307616 4.43293 1.07715C4.20613 1.27043 3.92414 1.38723 3.62711 1.41093C2.44444 1.50531 1.50531 2.44444 1.41093 3.62711C1.38723 3.92414 1.27043 4.20613 1.07715 4.43293C0.307616 5.33593 0.307616 6.66407 1.07715 7.56707C1.27043 7.79387 1.38723 8.07586 1.41093 8.37289C1.50531 9.55556 2.44444 10.4947 3.62711 10.5891C3.92414 10.6128 4.20613 10.7296 4.43293 10.9228C5.33593 11.6924 6.66407 11.6924 7.56707 10.9228C7.79387 10.7296 8.07586 10.6128 8.37289 10.5891C9.55556 10.4947 10.4947 9.55556 10.5891 8.37289C10.6128 8.07586 10.7296 7.79387 10.9228 7.56707C11.6924 6.66407 11.6924 5.33593 10.9228 4.43293C10.7296 4.20613 10.6128 3.92414 10.5891 3.62711C10.4947 2.44444 9.55556 1.50531 8.37289 1.41093C8.07586 1.38723 7.79387 1.27043 7.56707 1.07715ZM8.10355 5.10355C8.29882 4.90829 8.29882 4.59171 8.10355 4.39645C7.90829 4.20118 7.59171 4.20118 7.39645 4.39645L5.5 6.29289L4.85355 5.64645C4.65829 5.45118 4.34171 5.45118 4.14645 5.64645C3.95118 5.84171 3.95118 6.15829 4.14645 6.35355L5.14645 7.35355C5.34171 7.54882 5.65829 7.54882 5.85355 7.35355L8.10355 5.10355Z" fill="#2E90FA"/>
</svg>
