<svg
          width="21"
          height="20"
          viewBox="0 0 21 20"
          fill="none"
          className="stroke-[#111] dark:stroke-[#e7e7e7]"
          xmlns="http://www.w3.org/2000/svg"
        >
          <path
            d="M14.7 19H5.43138C4.82557 19 4.52266 19 4.38239 18.8802C4.26069 18.7763 4.1961 18.6203 4.20866 18.4608C4.22313 18.2769 4.43732 18.0627 4.8657 17.6343L13.3686 9.13137C13.7647 8.73536 13.9627 8.53735 14.191 8.46316C14.3918 8.3979 14.6082 8.3979 14.809 8.46316C15.0374 8.53735 15.2354 8.73535 15.6314 9.13137L19.5 13V14.2M14.7 19C16.3802 19 17.2202 19 17.862 18.673C18.4265 18.3854 18.8854 17.9265 19.173 17.362C19.5 16.7202 19.5 15.8802 19.5 14.2M14.7 19H6.30001C4.61985 19 3.77978 19 3.13804 18.673C2.57355 18.3854 2.11461 17.9265 1.82699 17.362C1.50001 16.7202 1.50001 15.8802 1.50001 14.2V5.8C1.50001 4.11984 1.50001 3.27976 1.82699 2.63803C2.11461 2.07354 2.57355 1.6146 3.13804 1.32698C3.77978 1 4.61985 1 6.30001 1H14.7C16.3802 1 17.2202 1 17.862 1.32698C18.4265 1.6146 18.8854 2.07354 19.173 2.63803C19.5 3.27976 19.5 4.11984 19.5 5.8V14.2M9.00001 6.5C9.00001 7.60457 8.10458 8.5 7.00001 8.5C5.89544 8.5 5.00001 7.60457 5.00001 6.5C5.00001 5.39543 5.89544 4.5 7.00001 4.5C8.10458 4.5 9.00001 5.39543 9.00001 6.5Z"
            strokeWidth="2"
            stroke="#9AA4B2"
            strokeLinecap="round"
            strokeLinejoin="round"
          />
        </svg>