 <svg
          width="23"
          height="20"
          viewBox="0 0 23 20"
          fill="none"
          className="stroke-[#111] dark:stroke-[#e7e7e7]"
          xmlns="http://www.w3.org/2000/svg"
        >
          <path
            d="M11.8334 19L11.7333 18.8499C11.0387 17.808 10.6913 17.287 10.2325 16.9098C9.82622 16.5759 9.35812 16.3254 8.85496 16.1726C8.28661 16 7.66047 16 6.40818 16H5.03336C3.91325 16 3.3532 16 2.92538 15.782C2.54905 15.5903 2.24309 15.2843 2.05135 14.908C1.83336 14.4802 1.83336 13.9201 1.83336 12.8V4.2C1.83336 3.07989 1.83336 2.51984 2.05135 2.09202C2.24309 1.71569 2.54905 1.40973 2.92538 1.21799C3.3532 1 3.91325 1 5.03336 1H5.43336C7.67357 1 8.79367 1 9.64932 1.43597C10.402 1.81947 11.0139 2.43139 11.3974 3.18404C11.8334 4.03968 11.8334 5.15979 11.8334 7.4M11.8334 19V7.4M11.8334 19L11.9334 18.8499C12.6281 17.808 12.9754 17.287 13.4343 16.9098C13.8405 16.5759 14.3086 16.3254 14.8118 16.1726C15.3801 16 16.0063 16 17.2585 16H18.6334C19.7535 16 20.3135 16 20.7413 15.782C21.1177 15.5903 21.4236 15.2843 21.6154 14.908C21.8334 14.4802 21.8334 13.9201 21.8334 12.8V4.2C21.8334 3.07989 21.8334 2.51984 21.6154 2.09202C21.4236 1.71569 21.1177 1.40973 20.7413 1.21799C20.3135 1 19.7535 1 18.6334 1H18.2334C15.9931 1 14.873 1 14.0174 1.43597C13.2647 1.81947 12.6528 2.43139 12.2693 3.18404C11.8334 4.03968 11.8334 5.15979 11.8334 7.4"
            strokeWidth="2"
            stroke="#9AA4B2"
            strokeLinecap="round"
            strokeLinejoin="round"
          />
        </svg>