<svg width="204" height="40" viewBox="0 0 204 40" fill="none" xmlns="http://www.w3.org/2000/svg">
<path d="M58.788 30H62.6472V20.0173C62.6472 17.4658 64.4013 16.19 66.315 16.19C68.1967 16.19 69.2811 17.2425 69.2811 19.6983V30H73.1402V20.0173C73.1402 17.4658 74.8944 16.19 76.808 16.19C78.7216 16.19 79.7741 17.2425 79.7741 19.6983V30H83.6332V19.4432C83.6332 14.8505 81.1455 12.9688 78.0837 12.9688C76.0106 12.9688 73.7143 13.8937 72.4385 15.9668C71.6093 13.8937 69.887 12.9688 67.7183 12.9688C65.2625 12.9688 63.4445 14.3083 62.6472 15.8711V13.3196H58.788V30ZM88.8102 35.709H92.6056L101.695 13.3196H97.9318L93.8494 24.0678L89.4162 13.3196H85.2381L91.8401 28.3096L88.8102 35.709ZM104.27 30H108.097V12.7774L115.018 30H116.39L123.183 12.7774V30H127.425V7.19601H121.812L115.943 22.7601L109.947 7.19601H104.27V30ZM135.901 30.3189C138.453 30.3189 139.92 29.394 141.004 27.9588V30H144.8V19.0605C144.8 14.4997 141.865 12.9688 138.134 12.9688C134.402 12.9688 131.309 14.5953 130.99 18.4864H134.721C134.913 16.8279 135.901 15.8711 137.911 15.8711C140.175 15.8711 140.94 16.9874 140.94 19.2199V20.0811H138.867C134.083 20.0811 130.32 21.4844 130.32 25.3754C130.32 28.8518 132.839 30.3189 135.901 30.3189ZM136.826 27.5442C134.913 27.5442 134.147 26.6193 134.147 25.2159C134.147 23.1748 136.029 22.505 138.963 22.505H140.94V24.1635C140.94 26.3003 139.186 27.5442 136.826 27.5442ZM148.585 30H152.444V21.3249C152.444 17.7847 154.485 16.7003 157.866 16.6684V13.0645C155.059 13.0963 153.497 14.3402 152.444 16.4452V13.3196H148.585V30ZM165.149 30H169.646L175.674 13.3196H171.878L167.573 26.0452L163.203 13.3196H159.057L165.149 30ZM177.99 30H181.85V13.3196H177.99V30ZM179.872 10.5767C181.148 10.5767 182.169 9.61993 182.169 8.37608C182.169 7.10033 181.148 6.14352 179.872 6.14352C178.596 6.14352 177.576 7.10033 177.576 8.37608C177.576 9.61993 178.596 10.5767 179.872 10.5767ZM185.916 30H189.775V20.1767C189.775 17.5296 191.529 16.19 193.698 16.19C195.994 16.19 197.015 17.3382 197.015 19.8578V30H200.874V19.507C200.874 14.9143 198.514 12.9688 195.165 12.9688C192.422 12.9688 190.572 14.3402 189.775 15.9668V13.3196H185.916V30Z" fill="black"/>
<g clip-path="url(#clip0_145_12456)">
<path d="M21.9401 22.9268C21.9401 19.6241 19.2627 16.9468 15.96 16.9468C12.6573 16.9468 9.97998 19.6241 9.97998 22.9268H21.9401Z" fill="black"/>
</g>
<g clip-path="url(#clip1_145_12456)">
<path d="M37.8869 22.9268C37.8869 19.6241 35.2095 16.9468 31.9068 16.9468C28.6041 16.9468 25.9268 19.6241 25.9268 22.9268H37.8869Z" fill="black"/>
</g>
<rect x="2.00664" y="8.97344" width="43.8538" height="27.907" rx="13.9535" stroke="black" stroke-width="3.98671"/>
<defs>
<clipPath id="clip0_145_12456">
<rect width="11.9601" height="5.98007" fill="white" transform="translate(9.97998 16.9468)"/>
</clipPath>
<clipPath id="clip1_145_12456">
<rect width="11.9601" height="5.98007" fill="white" transform="translate(25.9268 16.9468)"/>
</clipPath>
</defs>
</svg>
