<svg width="154" height="30" viewBox="0 0 154 30" fill="none" xmlns="http://www.w3.org/2000/svg">
<path d="M44.228 23H47.132V15.488C47.132 13.568 48.452 12.608 49.892 12.608C51.308 12.608 52.124 13.4 52.124 15.248V23H55.028V15.488C55.028 13.568 56.348 12.608 57.788 12.608C59.228 12.608 60.02 13.4 60.02 15.248V23H62.924V15.056C62.924 11.6 61.052 10.184 58.748 10.184C57.188 10.184 55.46 10.88 54.5 12.44C53.876 10.88 52.58 10.184 50.948 10.184C49.1 10.184 47.732 11.192 47.132 12.368V10.448H44.228V23ZM66.8197 27.296H69.6757L76.5157 10.448H73.6837L70.6117 18.536L67.2757 10.448H64.1317L69.0997 21.728L66.8197 27.296ZM78.4533 23H81.3333V10.04L86.5413 23H87.5733L92.6853 10.04V23H95.8773V5.84H91.6533L87.2373 17.552L82.7253 5.84H78.4533V23ZM102.256 23.24C104.176 23.24 105.28 22.544 106.096 21.464V23H108.952V14.768C108.952 11.336 106.744 10.184 103.936 10.184C101.128 10.184 98.7997 11.408 98.5597 14.336H101.368C101.512 13.088 102.256 12.368 103.768 12.368C105.472 12.368 106.048 13.208 106.048 14.888V15.536H104.488C100.888 15.536 98.0557 16.592 98.0557 19.52C98.0557 22.136 99.9517 23.24 102.256 23.24ZM102.952 21.152C101.512 21.152 100.936 20.456 100.936 19.4C100.936 17.864 102.352 17.36 104.56 17.36H106.048V18.608C106.048 20.216 104.728 21.152 102.952 21.152ZM111.8 23H114.704V16.472C114.704 13.808 116.24 12.992 118.784 12.968V10.256C116.672 10.28 115.496 11.216 114.704 12.8V10.448H111.8V23ZM124.264 23H127.648L132.184 10.448H129.328L126.088 20.024L122.8 10.448H119.68L124.264 23ZM133.928 23H136.832V10.448H133.928V23ZM135.344 8.384C136.304 8.384 137.072 7.664 137.072 6.728C137.072 5.768 136.304 5.048 135.344 5.048C134.384 5.048 133.616 5.768 133.616 6.728C133.616 7.664 134.384 8.384 135.344 8.384ZM139.891 23H142.795V15.608C142.795 13.616 144.115 12.608 145.747 12.608C147.475 12.608 148.243 13.472 148.243 15.368V23H151.147V15.104C151.147 11.648 149.371 10.184 146.851 10.184C144.787 10.184 143.395 11.216 142.795 12.44V10.448H139.891V23Z" fill="white"/>
<g clip-path="url(#clip0_3_1081)">
<path d="M16.5 16.5C16.5 14.0147 14.4853 12 12 12C9.51472 12 7.5 14.0147 7.5 16.5H16.5Z" fill="white"/>
</g>
<g clip-path="url(#clip1_3_1081)">
<path d="M28.5 16.5C28.5 14.0147 26.4853 12 24 12C21.5147 12 19.5 14.0147 19.5 16.5H28.5Z" fill="white"/>
</g>
<rect x="1.5" y="6" width="33" height="21" rx="10.5" stroke="white" stroke-width="3"/>
<defs>
<clipPath id="clip0_3_1081">
<rect width="9" height="4.5" fill="white" transform="translate(7.5 12)"/>
</clipPath>
<clipPath id="clip1_3_1081">
<rect width="9" height="4.5" fill="white" transform="translate(19.5 12)"/>
</clipPath>
</defs>
</svg>
