<svg width="186" height="45" viewBox="0 0 186 45" fill="none" xmlns="http://www.w3.org/2000/svg">
<path fill-rule="evenodd" clip-rule="evenodd" d="M182.25 18C182.25 11.6994 182.25 8.54911 181.024 6.14261C179.945 4.02578 178.224 2.30475 176.107 1.22618C173.701 0 170.551 0 164.25 0H18.25C11.9494 0 8.79912 0 6.39261 1.22618C4.27579 2.30475 2.55476 4.02578 1.47618 6.14261C0.25 8.54911 0.25 11.6994 0.25 18V27C0.25 33.3006 0.25 36.4509 1.47618 38.8574C2.55476 40.9742 4.27579 42.6952 6.39261 43.7738C8.79912 45 11.9494 45 18.25 45H164.25C170.551 45 173.701 45 176.107 43.7738C178.224 42.6952 179.945 40.9742 181.024 38.8574C182.25 36.4509 182.25 33.3006 182.25 27V18Z" fill="#1570EF"/>
<path fill-rule="evenodd" clip-rule="evenodd" d="M182.271 34.5H171C171 40.299 175.701 45 181.5 45H186V44.7532C184.927 43.8523 184.038 42.7403 183.395 41.4774C182.553 39.8252 182.33 37.7974 182.271 34.5Z" fill="#1570EF"/>
<path d="M13.757 18.25H14.8153L16.8822 11.1591H16.9569L19.0238 18.25H20.0822L22.5288 9.26648H21.3584L19.5717 16.5691H19.4969L17.4861 9.26648H16.353L14.3422 16.5691H14.2675L12.4807 9.26648H11.3103L13.757 18.25ZM24.1599 18.25H25.2432V14.2781C25.2432 13.8838 25.3137 13.5455 25.4548 13.2633C25.6001 12.9811 25.8035 12.7632 26.0649 12.6096C26.3264 12.4561 26.6356 12.3793 26.9926 12.3793C27.528 12.3793 27.9222 12.5266 28.1754 12.8213C28.4327 13.1118 28.5614 13.5601 28.5614 14.166V18.25H29.6447V13.9045C29.6447 13.3733 29.5533 12.923 29.3707 12.5536C29.1881 12.1842 28.9225 11.9041 28.5739 11.7131C28.2252 11.5181 27.7998 11.4205 27.2976 11.4205C26.8037 11.4205 26.397 11.5201 26.0774 11.7194C25.7578 11.9144 25.5129 12.1904 25.3428 12.5474H25.2432V8.87427H24.1599V18.25ZM33.4485 18.3683C33.7515 18.3683 34.0295 18.3268 34.2827 18.2438C34.5359 18.1566 34.7621 18.03 34.9613 17.864C35.1647 17.698 35.3369 17.4967 35.478 17.2601H35.5776V18.25H36.6609V13.6555C36.6609 13.1907 36.5613 12.7922 36.3621 12.4602C36.167 12.124 35.8785 11.8667 35.4967 11.6882C35.119 11.5098 34.6562 11.4205 34.1084 11.4205C33.6311 11.4205 33.2057 11.4952 32.8322 11.6447C32.4586 11.7899 32.1536 11.9954 31.917 12.261C31.6846 12.5225 31.5393 12.8296 31.4812 13.1824L31.475 13.2197H32.5582L32.5645 13.201C32.6516 12.9396 32.8239 12.7383 33.0812 12.5972C33.3385 12.4519 33.6685 12.3793 34.071 12.3793C34.5732 12.3793 34.9489 12.4893 35.1979 12.7092C35.451 12.925 35.5776 13.2405 35.5776 13.6555V15.7473C35.5776 16.0669 35.4946 16.3533 35.3286 16.6064C35.1667 16.8596 34.9426 17.0609 34.6562 17.2103C34.3699 17.3556 34.042 17.4282 33.6726 17.4282C33.2825 17.4282 32.9587 17.3348 32.7014 17.1481C32.4441 16.9572 32.3154 16.6915 32.3154 16.3512V16.3387C32.3154 16.0067 32.4316 15.7494 32.6641 15.5668C32.9006 15.3842 33.2742 15.2783 33.7847 15.2493L36.1193 15.0999V14.2345L33.6539 14.3839C33.1351 14.413 32.6931 14.5084 32.3279 14.6703C31.9626 14.8322 31.6846 15.0563 31.4937 15.3427C31.3027 15.6249 31.2073 15.9652 31.2073 16.3636V16.3761C31.2073 16.7828 31.3048 17.1356 31.4999 17.4344C31.6991 17.7333 31.9668 17.9636 32.303 18.1255C32.6433 18.2874 33.0251 18.3683 33.4485 18.3683ZM41.025 18.2998C41.1329 18.2998 41.2388 18.2936 41.3425 18.2811C41.4463 18.2687 41.55 18.2542 41.6538 18.2375V17.3162C41.5542 17.3245 41.4691 17.3307 41.3986 17.3348C41.3322 17.339 41.2512 17.3411 41.1558 17.3411C40.8071 17.3411 40.5581 17.256 40.4087 17.0858C40.2593 16.9115 40.1846 16.6272 40.1846 16.2329V12.4353H41.6538V11.5388H40.1846V9.80188H39.064V11.5388H38.0056V12.4353H39.064V16.5068C39.064 17.146 39.2175 17.6046 39.5247 17.8827C39.8359 18.1608 40.3361 18.2998 41.025 18.2998ZM49.1619 18.3683C49.6724 18.3683 50.1289 18.2832 50.5315 18.113C50.9382 17.9429 51.2599 17.7063 51.4965 17.4033C51.733 17.0962 51.8513 16.7434 51.8513 16.345V16.3325C51.8513 15.8511 51.6957 15.4672 51.3844 15.1808C51.0773 14.8944 50.6083 14.6744 49.9774 14.5209L48.944 14.2719C48.6825 14.2054 48.4688 14.1287 48.3027 14.0415C48.1367 13.9543 48.0143 13.8527 47.9354 13.7365C47.8566 13.6202 47.8171 13.4874 47.8171 13.338V13.3256C47.8171 13.1263 47.8773 12.952 47.9977 12.8026C48.118 12.6532 48.282 12.537 48.4895 12.454C48.697 12.3668 48.9336 12.3232 49.1992 12.3232C49.606 12.3232 49.9359 12.4062 50.1891 12.5723C50.4423 12.7383 50.6041 12.9541 50.6747 13.2197H51.7393C51.6895 12.8545 51.5525 12.537 51.3284 12.2672C51.1084 11.9974 50.8158 11.7899 50.4506 11.6447C50.0895 11.4952 49.6744 11.4205 49.2054 11.4205C48.7323 11.4205 48.3069 11.5056 47.9292 11.6758C47.5515 11.8459 47.2527 12.0784 47.0327 12.373C46.8169 12.6677 46.709 13.0018 46.709 13.3754V13.3816C46.709 13.7012 46.7733 13.9792 46.902 14.2158C47.0306 14.4482 47.2299 14.6454 47.4996 14.8073C47.7694 14.965 48.1139 15.0936 48.5331 15.1932L49.5728 15.4423C49.9878 15.5419 50.2866 15.6726 50.4692 15.8345C50.6519 15.9922 50.7432 16.1852 50.7432 16.4135V16.4259C50.7432 16.6293 50.6768 16.8098 50.5439 16.9675C50.4111 17.1211 50.2285 17.2435 49.9961 17.3348C49.7678 17.422 49.5022 17.4656 49.1992 17.4656C48.7717 17.4656 48.4252 17.3805 48.1595 17.2103C47.8939 17.0402 47.7155 16.816 47.6241 16.538H46.516C46.5575 16.9073 46.6924 17.229 46.9207 17.5029C47.1531 17.7769 47.4602 17.9906 47.842 18.1442C48.2239 18.2936 48.6638 18.3683 49.1619 18.3683ZM53.5945 18.25H54.6777V14.2781C54.6777 13.8838 54.7483 13.5455 54.8894 13.2633C55.0347 12.9811 55.238 12.7632 55.4995 12.6096C55.761 12.4561 56.0702 12.3793 56.4271 12.3793C56.9625 12.3793 57.3568 12.5266 57.61 12.8213C57.8673 13.1118 57.996 13.5601 57.996 14.166V18.25H59.0792V13.9045C59.0792 13.3733 58.9879 12.923 58.8053 12.5536C58.6227 12.1842 58.3571 11.9041 58.0084 11.7131C57.6598 11.5181 57.2344 11.4205 56.7322 11.4205C56.2383 11.4205 55.8315 11.5201 55.512 11.7194C55.1924 11.9144 54.9475 12.1904 54.7773 12.5474H54.6777V8.87427H53.5945V18.25ZM63.7982 18.3683C64.4374 18.3683 64.9873 18.2292 65.448 17.9512C65.9087 17.6689 66.2635 17.2684 66.5126 16.7496C66.7657 16.2308 66.8923 15.6145 66.8923 14.9006V14.8882C66.8923 14.1702 66.7657 13.5518 66.5126 13.033C66.2635 12.5142 65.9087 12.1157 65.448 11.8376C64.9873 11.5596 64.4374 11.4205 63.7982 11.4205C63.1632 11.4205 62.6133 11.5596 62.1484 11.8376C61.6877 12.1157 61.3308 12.5142 61.0776 13.033C60.8286 13.5518 60.7041 14.1702 60.7041 14.8882V14.9006C60.7041 15.6145 60.8286 16.2308 61.0776 16.7496C61.3308 17.2684 61.6877 17.6689 62.1484 17.9512C62.6133 18.2292 63.1632 18.3683 63.7982 18.3683ZM63.7982 17.4095C63.3749 17.4095 63.0159 17.3099 62.7212 17.1107C62.4265 16.9115 62.2003 16.6251 62.0426 16.2516C61.889 15.8781 61.8123 15.4277 61.8123 14.9006V14.8882C61.8123 14.3569 61.889 13.9045 62.0426 13.531C62.2003 13.1575 62.4265 12.8732 62.7212 12.6781C63.0159 12.4789 63.3749 12.3793 63.7982 12.3793C64.2216 12.3793 64.5806 12.4789 64.8752 12.6781C65.1699 12.8732 65.394 13.1575 65.5476 13.531C65.7053 13.9045 65.7842 14.3569 65.7842 14.8882V14.9006C65.7842 15.4277 65.7053 15.8781 65.5476 16.2516C65.394 16.6251 65.1699 16.9115 64.8752 17.1107C64.5806 17.3099 64.2216 17.4095 63.7982 17.4095ZM70.8207 18.3683C71.1486 18.3683 71.4412 18.3247 71.6985 18.2375C71.96 18.1504 72.1841 18.0238 72.3708 17.8578C72.5576 17.6876 72.705 17.4843 72.8129 17.2477H72.9125V18.25H73.9957V11.5388H72.9125V15.5107C72.9125 15.8054 72.873 16.071 72.7942 16.3076C72.7195 16.54 72.6053 16.7393 72.4518 16.9053C72.2982 17.0671 72.1073 17.1917 71.879 17.2788C71.6549 17.366 71.3955 17.4095 71.1008 17.4095C70.5654 17.4095 70.1794 17.2622 69.9429 16.9675C69.7104 16.6729 69.5942 16.2246 69.5942 15.6228V11.5388H68.511V15.8843C68.511 16.4114 68.5961 16.8617 68.7662 17.2352C68.9406 17.6046 69.2 17.8868 69.5444 18.0819C69.8889 18.2728 70.3143 18.3683 70.8207 18.3683ZM76.0813 18.25H77.1646V8.87427H76.0813V18.25ZM81.7217 18.3683C82.033 18.3683 82.3214 18.3206 82.587 18.2251C82.8527 18.1296 83.0892 17.9948 83.2968 17.8204C83.5043 17.642 83.6765 17.4282 83.8135 17.1792H83.9131V18.25H84.9963V8.87427H83.9131V12.5972H83.8135C83.6931 12.3564 83.5271 12.1489 83.3154 11.9746C83.1038 11.8003 82.861 11.6654 82.587 11.5699C82.3173 11.4703 82.0288 11.4205 81.7217 11.4205C81.1531 11.4205 80.6571 11.5637 80.2338 11.8501C79.8146 12.1365 79.4888 12.5391 79.2563 13.0579C79.0239 13.5767 78.9077 14.1868 78.9077 14.8882V14.9006C78.9077 15.5979 79.0239 16.208 79.2563 16.731C79.4888 17.2498 79.8167 17.6523 80.24 17.9387C80.6633 18.2251 81.1572 18.3683 81.7217 18.3683ZM81.9707 17.4095C81.564 17.4095 81.2133 17.3099 80.9186 17.1107C80.6281 16.9073 80.4039 16.6189 80.2462 16.2454C80.0927 15.8677 80.0159 15.4194 80.0159 14.9006V14.8882C80.0159 14.3652 80.0927 13.917 80.2462 13.5435C80.4039 13.1699 80.6281 12.8835 80.9186 12.6843C81.2133 12.481 81.564 12.3793 81.9707 12.3793C82.3774 12.3793 82.7281 12.481 83.0228 12.6843C83.3175 12.8877 83.5437 13.1761 83.7014 13.5497C83.8591 13.9232 83.938 14.3694 83.938 14.8882V14.9006C83.938 15.4153 83.8591 15.8615 83.7014 16.2391C83.5437 16.6127 83.3175 16.9011 83.0228 17.1045C82.7281 17.3079 82.3774 17.4095 81.9707 17.4095ZM90.7986 18.25H91.9192V9.26648H90.7986V18.25ZM99.9626 18.3683C100.473 18.3683 100.93 18.2832 101.332 18.113C101.739 17.9429 102.061 17.7063 102.297 17.4033C102.534 17.0962 102.652 16.7434 102.652 16.345V16.3325C102.652 15.8511 102.496 15.4672 102.185 15.1808C101.878 14.8944 101.409 14.6744 100.778 14.5209L99.7448 14.2719C99.4833 14.2054 99.2695 14.1287 99.1035 14.0415C98.9375 13.9543 98.8151 13.8527 98.7362 13.7365C98.6573 13.6202 98.6179 13.4874 98.6179 13.338V13.3256C98.6179 13.1263 98.6781 12.952 98.7985 12.8026C98.9188 12.6532 99.0828 12.537 99.2903 12.454C99.4978 12.3668 99.7344 12.3232 100 12.3232C100.407 12.3232 100.737 12.4062 100.99 12.5723C101.243 12.7383 101.405 12.9541 101.475 13.2197H102.54C102.49 12.8545 102.353 12.537 102.129 12.2672C101.909 11.9974 101.617 11.7899 101.251 11.6447C100.89 11.4952 100.475 11.4205 100.006 11.4205C99.5331 11.4205 99.1077 11.5056 98.73 11.6758C98.3523 11.8459 98.0535 12.0784 97.8335 12.373C97.6177 12.6677 97.5098 13.0018 97.5098 13.3754V13.3816C97.5098 13.7012 97.5741 13.9792 97.7028 14.2158C97.8314 14.4482 98.0306 14.6454 98.3004 14.8073C98.5702 14.965 98.9147 15.0936 99.3339 15.1932L100.374 15.4423C100.789 15.5419 101.087 15.6726 101.27 15.8345C101.453 15.9922 101.544 16.1852 101.544 16.4135V16.4259C101.544 16.6293 101.478 16.8098 101.345 16.9675C101.212 17.1211 101.029 17.2435 100.797 17.3348C100.569 17.422 100.303 17.4656 100 17.4656C99.5725 17.4656 99.226 17.3805 98.9603 17.2103C98.6947 17.0402 98.5162 16.816 98.4249 16.538H97.3168C97.3583 16.9073 97.4932 17.229 97.7214 17.5029C97.9539 17.7769 98.261 17.9906 98.6428 18.1442C99.0247 18.2936 99.4646 18.3683 99.9626 18.3683ZM107.072 18.3683C107.467 18.3683 107.821 18.3185 108.137 18.2189C108.456 18.1151 108.732 17.9781 108.965 17.808C109.197 17.6337 109.386 17.4407 109.531 17.229C109.681 17.0132 109.785 16.7911 109.843 16.5629L109.855 16.5131H108.772L108.747 16.5691C108.689 16.7019 108.587 16.8326 108.442 16.9613C108.297 17.09 108.112 17.1958 107.888 17.2788C107.664 17.3618 107.4 17.4033 107.097 17.4033C106.69 17.4033 106.338 17.3141 106.039 17.1356C105.74 16.953 105.51 16.6936 105.348 16.3574C105.186 16.0171 105.105 15.6083 105.105 15.131V14.7014C105.105 14.1992 105.188 13.7759 105.354 13.4314C105.52 13.0869 105.744 12.8275 106.026 12.6532C106.313 12.4747 106.636 12.3855 106.998 12.3855C107.359 12.3855 107.678 12.4706 107.956 12.6407C108.234 12.8068 108.452 13.0599 108.61 13.4003C108.768 13.7406 108.847 14.1743 108.847 14.7014V15.131L109.382 14.3403H104.557V15.2057H109.936V14.7823C109.936 14.1141 109.818 13.5289 109.581 13.0267C109.349 12.5204 109.013 12.1261 108.573 11.8439C108.137 11.5616 107.614 11.4205 107.004 11.4205C106.398 11.4205 105.869 11.5679 105.416 11.8625C104.964 12.1572 104.613 12.566 104.364 13.089C104.119 13.6119 103.997 14.22 103.997 14.9131V14.9193C103.997 15.6207 104.119 16.2308 104.364 16.7496C104.613 17.2643 104.966 17.6627 105.422 17.9449C105.883 18.2272 106.433 18.3683 107.072 18.3683ZM114.356 18.3683C114.75 18.3683 115.105 18.3185 115.421 18.2189C115.74 18.1151 116.016 17.9781 116.249 17.808C116.481 17.6337 116.67 17.4407 116.815 17.229C116.965 17.0132 117.068 16.7911 117.127 16.5629L117.139 16.5131H116.056L116.031 16.5691C115.973 16.7019 115.871 16.8326 115.726 16.9613C115.581 17.09 115.396 17.1958 115.172 17.2788C114.948 17.3618 114.684 17.4033 114.381 17.4033C113.974 17.4033 113.622 17.3141 113.323 17.1356C113.024 16.953 112.794 16.6936 112.632 16.3574C112.47 16.0171 112.389 15.6083 112.389 15.131V14.7014C112.389 14.1992 112.472 13.7759 112.638 13.4314C112.804 13.0869 113.028 12.8275 113.31 12.6532C113.597 12.4747 113.92 12.3855 114.281 12.3855C114.643 12.3855 114.962 12.4706 115.24 12.6407C115.518 12.8068 115.736 13.0599 115.894 13.4003C116.052 13.7406 116.13 14.1743 116.13 14.7014V15.131L116.666 14.3403H111.841V15.2057H117.22V14.7823C117.22 14.1141 117.102 13.5289 116.865 13.0267C116.633 12.5204 116.297 12.1261 115.857 11.8439C115.421 11.5616 114.898 11.4205 114.288 11.4205C113.682 11.4205 113.153 11.5679 112.7 11.8625C112.248 12.1572 111.897 12.566 111.648 13.089C111.403 13.6119 111.281 14.22 111.281 14.9131V14.9193C111.281 15.6207 111.403 16.2308 111.648 16.7496C111.897 17.2643 112.25 17.6627 112.706 17.9449C113.167 18.2272 113.717 18.3683 114.356 18.3683ZM125.245 18.3683C125.884 18.3683 126.434 18.2292 126.895 17.9512C127.355 17.6689 127.71 17.2684 127.959 16.7496C128.212 16.2308 128.339 15.6145 128.339 14.9006V14.8882C128.339 14.1702 128.212 13.5518 127.959 13.033C127.71 12.5142 127.355 12.1157 126.895 11.8376C126.434 11.5596 125.884 11.4205 125.245 11.4205C124.61 11.4205 124.06 11.5596 123.595 11.8376C123.134 12.1157 122.777 12.5142 122.524 13.033C122.275 13.5518 122.151 14.1702 122.151 14.8882V14.9006C122.151 15.6145 122.275 16.2308 122.524 16.7496C122.777 17.2684 123.134 17.6689 123.595 17.9512C124.06 18.2292 124.61 18.3683 125.245 18.3683ZM125.245 17.4095C124.821 17.4095 124.462 17.3099 124.168 17.1107C123.873 16.9115 123.647 16.6251 123.489 16.2516C123.336 15.8781 123.259 15.4277 123.259 14.9006V14.8882C123.259 14.3569 123.336 13.9045 123.489 13.531C123.647 13.1575 123.873 12.8732 124.168 12.6781C124.462 12.4789 124.821 12.3793 125.245 12.3793C125.668 12.3793 126.027 12.4789 126.322 12.6781C126.616 12.8732 126.841 13.1575 126.994 13.531C127.152 13.9045 127.231 14.3569 127.231 14.8882V14.9006C127.231 15.4277 127.152 15.8781 126.994 16.2516C126.841 16.6251 126.616 16.9115 126.322 17.1107C126.027 17.3099 125.668 17.4095 125.245 17.4095ZM130.02 18.25H131.103V14.2781C131.103 13.8838 131.174 13.5455 131.315 13.2633C131.46 12.9811 131.663 12.7632 131.925 12.6096C132.186 12.4561 132.495 12.3793 132.852 12.3793C133.388 12.3793 133.782 12.5266 134.035 12.8213C134.293 13.1118 134.421 13.5601 134.421 14.166V18.25H135.505V13.9045C135.505 13.1077 135.301 12.4955 134.894 12.068C134.492 11.6364 133.913 11.4205 133.157 11.4205C132.664 11.4205 132.257 11.5201 131.937 11.7194C131.618 11.9144 131.373 12.1904 131.203 12.5474H131.103V11.5388H130.02V18.25ZM141.052 18.25H142.135V14.0913C142.135 13.7759 142.201 13.4895 142.334 13.2322C142.471 12.9707 142.656 12.7632 142.888 12.6096C143.125 12.4561 143.388 12.3793 143.679 12.3793C143.961 12.3793 144.206 12.4332 144.413 12.5411C144.625 12.649 144.787 12.8026 144.899 13.0018C145.015 13.1969 145.073 13.4272 145.073 13.6929V18.25H146.156V13.9357C146.156 13.6493 146.221 13.3899 146.349 13.1575C146.478 12.9209 146.659 12.7321 146.891 12.5909C147.124 12.4498 147.395 12.3793 147.707 12.3793C148.022 12.3793 148.284 12.4353 148.491 12.5474C148.699 12.6553 148.852 12.8192 148.952 13.0392C149.056 13.255 149.107 13.5289 149.107 13.861V18.25H150.191V13.6119C150.191 13.1429 150.108 12.7466 149.942 12.4229C149.776 12.095 149.533 11.8459 149.213 11.6758C148.898 11.5056 148.512 11.4205 148.055 11.4205C147.748 11.4205 147.46 11.4703 147.19 11.5699C146.924 11.6654 146.69 11.8024 146.486 11.9808C146.283 12.1552 146.121 12.3606 146.001 12.5972H145.901C145.797 12.3647 145.658 12.1614 145.484 11.9871C145.31 11.8086 145.102 11.6696 144.862 11.5699C144.621 11.4703 144.349 11.4205 144.046 11.4205C143.606 11.4205 143.23 11.5201 142.919 11.7194C142.612 11.9186 142.384 12.1987 142.234 12.5598H142.135V11.5388H141.052V18.25ZM152.469 20.6033C152.868 20.6033 153.202 20.5452 153.472 20.429C153.745 20.3169 153.982 20.1198 154.181 19.8375C154.385 19.5553 154.58 19.1631 154.766 18.6609L157.387 11.5388H156.248L154.188 17.7395L154.617 17.0609H154.107L154.536 17.7395L152.469 11.5388H151.311L153.795 18.2562L153.671 18.6547C153.55 19.0406 153.391 19.3125 153.191 19.4702C152.996 19.6279 152.745 19.7068 152.438 19.7068C152.363 19.7068 152.287 19.7047 152.208 19.7006C152.129 19.6964 152.056 19.6881 151.99 19.6757V20.5659C152.065 20.5784 152.146 20.5867 152.233 20.5908C152.32 20.5991 152.399 20.6033 152.469 20.6033ZM14.1429 34.2998C14.2509 34.2998 14.3567 34.2936 14.4604 34.2811C14.5642 34.2687 14.668 34.2542 14.7717 34.2375V33.3162C14.6721 33.3245 14.587 33.3307 14.5165 33.3348C14.4501 33.339 14.3691 33.3411 14.2737 33.3411C13.925 33.3411 13.676 33.256 13.5266 33.0858C13.3772 32.9115 13.3025 32.6272 13.3025 32.2329V28.4353H14.7717V27.5388H13.3025V25.8019H12.1819V27.5388H11.1235V28.4353H12.1819V32.5068C12.1819 33.146 12.3354 33.6046 12.6426 33.8827C12.9539 34.1608 13.454 34.2998 14.1429 34.2998ZM16.3904 34.25H17.4736V30.0913C17.4736 29.7634 17.5483 29.4771 17.6978 29.2322C17.8513 28.9873 18.0609 28.7964 18.3265 28.6594C18.5922 28.5225 18.8972 28.454 19.2417 28.454C19.3621 28.454 19.4741 28.4602 19.5779 28.4727C19.6858 28.481 19.7958 28.4955 19.9078 28.5162V27.4641C19.8539 27.4558 19.775 27.4475 19.6713 27.4392C19.5717 27.4268 19.47 27.4205 19.3662 27.4205C18.9138 27.4205 18.5341 27.5181 18.2269 27.7131C17.9198 27.9082 17.7019 28.1821 17.5732 28.5349H17.4736V27.5388H16.3904V34.25ZM21.2712 34.25H22.3545V27.5388H21.2712V34.25ZM21.8191 26.2439C22.0266 26.2439 22.203 26.1713 22.3483 26.026C22.4935 25.8766 22.5662 25.7002 22.5662 25.4968C22.5662 25.2893 22.4935 25.1129 22.3483 24.9677C22.203 24.8224 22.0266 24.7498 21.8191 24.7498C21.6157 24.7498 21.4393 24.8224 21.2899 24.9677C21.1447 25.1129 21.072 25.2893 21.072 25.4968C21.072 25.7002 21.1447 25.8766 21.2899 26.026C21.4393 26.1713 21.6157 26.2439 21.8191 26.2439ZM24.3965 36.4912H25.4797V33.1917H25.5793C25.7039 33.4324 25.8699 33.6399 26.0774 33.8142C26.2891 33.9885 26.5298 34.1255 26.7996 34.2251C27.0735 34.3206 27.364 34.3683 27.6711 34.3683C28.2397 34.3683 28.7336 34.2251 29.1528 33.9387C29.5762 33.6523 29.9041 33.2498 30.1365 32.731C30.3689 32.2122 30.4851 31.6021 30.4851 30.9006V30.8882C30.4851 30.1909 30.3689 29.5829 30.1365 29.0641C29.9041 28.5453 29.5762 28.1427 29.1528 27.8563C28.7336 27.5658 28.2397 27.4205 27.6711 27.4205C27.3599 27.4205 27.0714 27.4683 26.8058 27.5637C26.5402 27.6592 26.3036 27.7961 26.0961 27.9746C25.8885 28.1489 25.7163 28.3606 25.5793 28.6096H25.4797V27.5388H24.3965V36.4912ZM27.4221 33.4095C27.0154 33.4095 26.6647 33.3079 26.37 33.1045C26.0753 32.9011 25.8491 32.6127 25.6914 32.2391C25.5337 31.8615 25.4548 31.4153 25.4548 30.9006V30.8882C25.4548 30.3694 25.5337 29.9232 25.6914 29.5497C25.8491 29.1761 26.0753 28.8877 26.37 28.6843C26.6647 28.481 27.0154 28.3793 27.4221 28.3793C27.833 28.3793 28.1837 28.481 28.4742 28.6843C28.7648 28.8835 28.9868 29.1699 29.1404 29.5435C29.2981 29.917 29.377 30.3652 29.377 30.8882V30.9006C29.377 31.4194 29.2981 31.8677 29.1404 32.2454C28.9868 32.6189 28.7648 32.9073 28.4742 33.1107C28.1837 33.3099 27.833 33.4095 27.4221 33.4095ZM38.1488 34.2998C38.2567 34.2998 38.3625 34.2936 38.4663 34.2811C38.5701 34.2687 38.6738 34.2542 38.7776 34.2375V33.3162C38.678 33.3245 38.5929 33.3307 38.5223 33.3348C38.4559 33.339 38.375 33.3411 38.2795 33.3411C37.9309 33.3411 37.6819 33.256 37.5325 33.0858C37.3831 32.9115 37.3083 32.6272 37.3083 32.2329V28.4353H38.7776V27.5388H37.3083V25.8019H36.1877V27.5388H35.1294V28.4353H36.1877V32.5068C36.1877 33.146 36.3413 33.6046 36.6484 33.8827C36.9597 34.1608 37.4598 34.2998 38.1488 34.2998ZM43.067 34.3683C43.7062 34.3683 44.2561 34.2292 44.7168 33.9512C45.1775 33.6689 45.5323 33.2684 45.7814 32.7496C46.0345 32.2308 46.1611 31.6145 46.1611 30.9006V30.8882C46.1611 30.1702 46.0345 29.5518 45.7814 29.033C45.5323 28.5142 45.1775 28.1157 44.7168 27.8376C44.2561 27.5596 43.7062 27.4205 43.067 27.4205C42.432 27.4205 41.8821 27.5596 41.4172 27.8376C40.9565 28.1157 40.5996 28.5142 40.3464 29.033C40.0974 29.5518 39.9729 30.1702 39.9729 30.8882V30.9006C39.9729 31.6145 40.0974 32.2308 40.3464 32.7496C40.5996 33.2684 40.9565 33.6689 41.4172 33.9512C41.8821 34.2292 42.432 34.3683 43.067 34.3683ZM43.067 33.4095C42.6437 33.4095 42.2847 33.3099 41.99 33.1107C41.6953 32.9115 41.4691 32.6251 41.3114 32.2516C41.1578 31.8781 41.0811 31.4277 41.0811 30.9006V30.8882C41.0811 30.3569 41.1578 29.9045 41.3114 29.531C41.4691 29.1575 41.6953 28.8732 41.99 28.6781C42.2847 28.4789 42.6437 28.3793 43.067 28.3793C43.4904 28.3793 43.8494 28.4789 44.144 28.6781C44.4387 28.8732 44.6628 29.1575 44.8164 29.531C44.9741 29.9045 45.053 30.3569 45.053 30.8882V30.9006C45.053 31.4277 44.9741 31.8781 44.8164 32.2516C44.6628 32.6251 44.4387 32.9115 44.144 33.1107C43.8494 33.3099 43.4904 33.4095 43.067 33.4095ZM51.5649 34.25H57.0186V33.2415H52.6855V25.2665H51.5649V34.25ZM58.6995 34.25H59.7827V27.5388H58.6995V34.25ZM59.2473 26.2439C59.4548 26.2439 59.6312 26.1713 59.7765 26.026C59.9218 25.8766 59.9944 25.7002 59.9944 25.4968C59.9944 25.2893 59.9218 25.1129 59.7765 24.9677C59.6312 24.8224 59.4548 24.7498 59.2473 24.7498C59.0439 24.7498 58.8676 24.8224 58.7181 24.9677C58.5729 25.1129 58.5002 25.2893 58.5002 25.4968C58.5002 25.7002 58.5729 25.8766 58.7181 26.026C58.8676 26.1713 59.0439 26.2439 59.2473 26.2439ZM64.1282 34.3683C64.6387 34.3683 65.0952 34.2832 65.4978 34.113C65.9045 33.9429 66.2262 33.7063 66.4628 33.4033C66.6993 33.0962 66.8176 32.7434 66.8176 32.345V32.3325C66.8176 31.8511 66.662 31.4672 66.3507 31.1808C66.0436 30.8944 65.5746 30.6744 64.9437 30.5209L63.9103 30.2719C63.6488 30.2054 63.4351 30.1287 63.269 30.0415C63.103 29.9543 62.9806 29.8527 62.9017 29.7365C62.8229 29.6202 62.7834 29.4874 62.7834 29.338V29.3256C62.7834 29.1263 62.8436 28.952 62.964 28.8026C63.0844 28.6532 63.2483 28.537 63.4558 28.454C63.6633 28.3668 63.8999 28.3232 64.1655 28.3232C64.5723 28.3232 64.9022 28.4062 65.1554 28.5723C65.4086 28.7383 65.5704 28.9541 65.641 29.2197H66.7056C66.6558 28.8545 66.5188 28.537 66.2947 28.2672C66.0747 27.9974 65.7821 27.7899 65.4169 27.6447C65.0558 27.4952 64.6407 27.4205 64.1718 27.4205C63.6986 27.4205 63.2732 27.5056 62.8955 27.6758C62.5178 27.8459 62.219 28.0784 61.999 28.373C61.7832 28.6677 61.6753 29.0018 61.6753 29.3754V29.3816C61.6753 29.7012 61.7396 29.9792 61.8683 30.2158C61.9969 30.4482 62.1962 30.6454 62.4659 30.8073C62.7357 30.965 63.0802 31.0936 63.4994 31.1932L64.5391 31.4423C64.9541 31.5419 65.2529 31.6726 65.4355 31.8345C65.6182 31.9922 65.7095 32.1852 65.7095 32.4135V32.4259C65.7095 32.6293 65.6431 32.8098 65.5103 32.9675C65.3774 33.1211 65.1948 33.2435 64.9624 33.3348C64.7341 33.422 64.4685 33.4656 64.1655 33.4656C63.738 33.4656 63.3915 33.3805 63.1259 33.2103C62.8602 33.0402 62.6818 32.816 62.5905 32.538H61.4823C61.5238 32.9073 61.6587 33.229 61.887 33.5029C62.1194 33.7769 62.4265 33.9906 62.8083 34.1442C63.1902 34.2936 63.6301 34.3683 64.1282 34.3683ZM71.8354 34.3683C72.4041 34.3683 72.8979 34.2251 73.3171 33.9387C73.7405 33.6523 74.0684 33.2498 74.3008 32.731C74.5332 32.208 74.6494 31.5979 74.6494 30.9006V30.8882C74.6494 30.1868 74.5332 29.5767 74.3008 29.0579C74.0684 28.5391 73.7405 28.1365 73.3171 27.8501C72.8979 27.5637 72.4041 27.4205 71.8354 27.4205C71.5283 27.4205 71.2378 27.4703 70.9639 27.5699C70.6941 27.6654 70.4534 27.8003 70.2417 27.9746C70.0342 28.1489 69.8682 28.3564 69.7437 28.5972H69.644V24.8743H68.5608V34.25H69.644V33.1792H69.7437C69.8806 33.4282 70.0529 33.642 70.2604 33.8204C70.4679 33.9948 70.7045 34.1296 70.9701 34.2251C71.2357 34.3206 71.5242 34.3683 71.8354 34.3683ZM71.5864 33.4095C71.1797 33.4095 70.829 33.3079 70.5343 33.1045C70.2396 32.9011 70.0134 32.6127 69.8557 32.2391C69.698 31.8615 69.6191 31.4153 69.6191 30.9006V30.8882C69.6191 30.3694 69.698 29.9232 69.8557 29.5497C70.0134 29.1761 70.2396 28.8877 70.5343 28.6843C70.829 28.481 71.1797 28.3793 71.5864 28.3793C71.9973 28.3793 72.348 28.481 72.6385 28.6843C72.9291 28.8835 73.1511 29.1699 73.3047 29.5435C73.4624 29.917 73.5413 30.3652 73.5413 30.8882V30.9006C73.5413 31.4194 73.4624 31.8677 73.3047 32.2454C73.1511 32.6189 72.9291 32.9073 72.6385 33.1107C72.348 33.3099 71.9973 33.4095 71.5864 33.4095ZM79.0883 34.3683C79.7274 34.3683 80.2773 34.2292 80.738 33.9512C81.1987 33.6689 81.5536 33.2684 81.8026 32.7496C82.0558 32.2308 82.1824 31.6145 82.1824 30.9006V30.8882C82.1824 30.1702 82.0558 29.5518 81.8026 29.033C81.5536 28.5142 81.1987 28.1157 80.738 27.8376C80.2773 27.5596 79.7274 27.4205 79.0883 27.4205C78.4532 27.4205 77.9033 27.5596 77.4385 27.8376C76.9778 28.1157 76.6208 28.5142 76.3677 29.033C76.1187 29.5518 75.9941 30.1702 75.9941 30.8882V30.9006C75.9941 31.6145 76.1187 32.2308 76.3677 32.7496C76.6208 33.2684 76.9778 33.6689 77.4385 33.9512C77.9033 34.2292 78.4532 34.3683 79.0883 34.3683ZM79.0883 33.4095C78.6649 33.4095 78.3059 33.3099 78.0112 33.1107C77.7166 32.9115 77.4904 32.6251 77.3326 32.2516C77.1791 31.8781 77.1023 31.4277 77.1023 30.9006V30.8882C77.1023 30.3569 77.1791 29.9045 77.3326 29.531C77.4904 29.1575 77.7166 28.8732 78.0112 28.6781C78.3059 28.4789 78.6649 28.3793 79.0883 28.3793C79.5116 28.3793 79.8706 28.4789 80.1653 28.6781C80.46 28.8732 80.6841 29.1575 80.8376 29.531C80.9954 29.9045 81.0742 30.3569 81.0742 30.8882V30.9006C81.0742 31.4277 80.9954 31.8781 80.8376 32.2516C80.6841 32.6251 80.46 32.9115 80.1653 33.1107C79.8706 33.3099 79.5116 33.4095 79.0883 33.4095ZM83.8633 34.25H84.9465V30.2781C84.9465 29.8838 85.0171 29.5455 85.1582 29.2633C85.3035 28.9811 85.5068 28.7632 85.7683 28.6096C86.0298 28.4561 86.339 28.3793 86.6959 28.3793C87.2313 28.3793 87.6256 28.5266 87.8788 28.8213C88.1361 29.1118 88.2648 29.5601 88.2648 30.166V34.25H89.348V29.9045C89.348 29.1077 89.1447 28.4955 88.7379 28.068C88.3353 27.6364 87.7563 27.4205 87.001 27.4205C86.5071 27.4205 86.1003 27.5201 85.7808 27.7194C85.4612 27.9144 85.2163 28.1904 85.0461 28.5474H84.9465V27.5388H83.8633V34.25ZM92.7472 31.4734H93.8367V31.0687C93.8367 30.8488 93.8657 30.6578 93.9238 30.496C93.9861 30.3341 94.0898 30.1826 94.2351 30.0415C94.3845 29.9004 94.59 29.7531 94.8514 29.5995C95.1171 29.4376 95.3474 29.2529 95.5425 29.0454C95.7375 28.8379 95.887 28.6034 95.9907 28.3419C96.0986 28.0763 96.1526 27.7816 96.1526 27.4579V27.4454C96.1526 27.0179 96.0405 26.6361 95.8164 26.2999C95.5964 25.9596 95.2872 25.6919 94.8888 25.4968C94.4945 25.2976 94.0359 25.198 93.5129 25.198C92.9319 25.198 92.4442 25.3059 92.0499 25.5217C91.6556 25.7375 91.3547 26.0281 91.1472 26.3933C90.9397 26.7585 90.8235 27.1632 90.7986 27.6073V27.6198L91.8569 27.6135L91.8694 27.6073C91.8901 27.3126 91.9669 27.0574 92.0997 26.8416C92.2367 26.6257 92.4214 26.4597 92.6538 26.3435C92.8862 26.2273 93.1581 26.1692 93.4694 26.1692C93.7806 26.1692 94.0504 26.2273 94.2787 26.3435C94.507 26.4597 94.6833 26.6174 94.8079 26.8167C94.9324 27.0159 94.9946 27.2441 94.9946 27.5015V27.5139C94.9946 27.7339 94.9614 27.929 94.895 28.0991C94.8286 28.2693 94.7207 28.427 94.5713 28.5723C94.426 28.7134 94.233 28.8586 93.9923 29.0081C93.7101 29.1782 93.4756 29.3567 93.2888 29.5435C93.1021 29.7302 92.9651 29.9357 92.8779 30.1598C92.7908 30.3798 92.7472 30.6267 92.7472 30.9006V31.4734ZM93.376 34.3621C93.6292 34.3621 93.8346 34.2811 93.9923 34.1193C94.1542 33.9574 94.2351 33.7499 94.2351 33.4967C94.2351 33.2394 94.1542 33.0298 93.9923 32.8679C93.8346 32.7061 93.6292 32.6251 93.376 32.6251C93.1228 32.6251 92.9153 32.7061 92.7534 32.8679C92.5916 33.0298 92.5106 33.2394 92.5106 33.4967C92.5106 33.7499 92.5916 33.9574 92.7534 34.1193C92.9153 34.2811 93.1228 34.3621 93.376 34.3621Z" fill="white"/>
</svg>
