<svg width="186" height="45" viewBox="0 0 186 45" fill="none" xmlns="http://www.w3.org/2000/svg">
<path fill-rule="evenodd" clip-rule="evenodd" d="M182.25 18C182.25 11.6994 182.25 8.54911 181.024 6.14261C179.945 4.02578 178.224 2.30475 176.107 1.22618C173.701 0 170.551 0 164.25 0H18.25C11.9494 0 8.79912 0 6.39261 1.22618C4.27579 2.30475 2.55476 4.02578 1.47618 6.14261C0.25 8.54911 0.25 11.6994 0.25 18V27C0.25 33.3006 0.25 36.4509 1.47618 38.8574C2.55476 40.9742 4.27579 42.6952 6.39261 43.7738C8.79912 45 11.9494 45 18.25 45H164.25C170.551 45 173.701 45 176.107 43.7738C178.224 42.6952 179.945 40.9742 181.024 38.8574C182.25 36.4509 182.25 33.3006 182.25 27V18Z" fill="#1570EF"/>
<path fill-rule="evenodd" clip-rule="evenodd" d="M182.271 34.5H171C171 40.299 175.701 45 181.5 45H186V44.7532C184.927 43.8523 184.038 42.7403 183.395 41.4774C182.553 39.8252 182.33 37.7974 182.271 34.5Z" fill="#1570EF"/>
<path d="M13.757 18.25H14.8153L16.8822 11.1591H16.9569L19.0238 18.25H20.0822L22.5288 9.26648H21.3584L19.5717 16.5691H19.4969L17.4861 9.26648H16.353L14.3422 16.5691H14.2675L12.4807 9.26648H11.3103L13.757 18.25ZM24.1599 18.25H25.2432V14.2781C25.2432 13.8838 25.3137 13.5455 25.4548 13.2633C25.6001 12.9811 25.8035 12.7632 26.0649 12.6096C26.3264 12.4561 26.6356 12.3793 26.9926 12.3793C27.528 12.3793 27.9222 12.5266 28.1754 12.8213C28.4327 13.1118 28.5614 13.5601 28.5614 14.166V18.25H29.6447V13.9045C29.6447 13.3733 29.5533 12.923 29.3707 12.5536C29.1881 12.1842 28.9225 11.9041 28.5739 11.7131C28.2252 11.5181 27.7998 11.4205 27.2976 11.4205C26.8037 11.4205 26.397 11.5201 26.0774 11.7194C25.7578 11.9144 25.5129 12.1904 25.3428 12.5474H25.2432V8.87427H24.1599V18.25ZM34.345 18.3683C34.7393 18.3683 35.0941 18.3185 35.4095 18.2189C35.7291 18.1151 36.0051 17.9781 36.2375 17.808C36.47 17.6337 36.6588 17.4407 36.8041 17.229C36.9535 17.0132 37.0573 16.7911 37.1154 16.5629L37.1278 16.5131H36.0446L36.0197 16.5691C35.9615 16.7019 35.8599 16.8326 35.7146 16.9613C35.5693 17.09 35.3846 17.1958 35.1605 17.2788C34.9364 17.3618 34.6729 17.4033 34.3699 17.4033C33.9631 17.4033 33.6104 17.3141 33.3115 17.1356C33.0127 16.953 32.7823 16.6936 32.6205 16.3574C32.4586 16.0171 32.3777 15.6083 32.3777 15.131V14.7014C32.3777 14.1992 32.4607 13.7759 32.6267 13.4314C32.7927 13.0869 33.0168 12.8275 33.2991 12.6532C33.5854 12.4747 33.9092 12.3855 34.2703 12.3855C34.6313 12.3855 34.9509 12.4706 35.229 12.6407C35.5071 12.8068 35.725 13.0599 35.8827 13.4003C36.0404 13.7406 36.1193 14.1743 36.1193 14.7014V15.131L36.6547 14.3403H31.8298V15.2057H37.2087V14.7823C37.2087 14.1141 37.0905 13.5289 36.8539 13.0267C36.6215 12.5204 36.2853 12.1261 35.8453 11.8439C35.4095 11.5616 34.8866 11.4205 34.2765 11.4205C33.6705 11.4205 33.1414 11.5679 32.689 11.8625C32.2366 12.1572 31.8859 12.566 31.6368 13.089C31.392 13.6119 31.2695 14.22 31.2695 14.9131V14.9193C31.2695 15.6207 31.392 16.2308 31.6368 16.7496C31.8859 17.2643 32.2386 17.6627 32.6952 17.9449C33.1559 18.2272 33.7058 18.3683 34.345 18.3683ZM38.8896 18.25H39.9729V14.2781C39.9729 13.8838 40.0435 13.5455 40.1846 13.2633C40.3298 12.9811 40.5332 12.7632 40.7947 12.6096C41.0562 12.4561 41.3654 12.3793 41.7223 12.3793C42.2577 12.3793 42.652 12.5266 42.9052 12.8213C43.1625 13.1118 43.2911 13.5601 43.2911 14.166V18.25H44.3744V13.9045C44.3744 13.1077 44.171 12.4955 43.7643 12.068C43.3617 11.6364 42.7827 11.4205 42.0273 11.4205C41.5334 11.4205 41.1267 11.5201 40.8071 11.7194C40.4875 11.9144 40.2427 12.1904 40.0725 12.5474H39.9729V11.5388H38.8896V18.25ZM49.9463 18.25H51.0295V11.5388H49.9463V18.25ZM50.4941 10.2439C50.7017 10.2439 50.8781 10.1713 51.0233 10.026C51.1686 9.87659 51.2412 9.7002 51.2412 9.49683C51.2412 9.28931 51.1686 9.11292 51.0233 8.96765C50.8781 8.82239 50.7017 8.74976 50.4941 8.74976C50.2908 8.74976 50.1144 8.82239 49.965 8.96765C49.8197 9.11292 49.7471 9.28931 49.7471 9.49683C49.7471 9.7002 49.8197 9.87659 49.965 10.026C50.1144 10.1713 50.2908 10.2439 50.4941 10.2439ZM55.375 18.3683C55.8855 18.3683 56.342 18.2832 56.7446 18.113C57.1514 17.9429 57.473 17.7063 57.7096 17.4033C57.9462 17.0962 58.0645 16.7434 58.0645 16.345V16.3325C58.0645 15.8511 57.9088 15.4672 57.5975 15.1808C57.2904 14.8944 56.8214 14.6744 56.1906 14.5209L55.1571 14.2719C54.8956 14.2054 54.6819 14.1287 54.5159 14.0415C54.3499 13.9543 54.2274 13.8527 54.1486 13.7365C54.0697 13.6202 54.0303 13.4874 54.0303 13.338V13.3256C54.0303 13.1263 54.0905 12.952 54.2108 12.8026C54.3312 12.6532 54.4951 12.537 54.7026 12.454C54.9102 12.3668 55.1467 12.3232 55.4124 12.3232C55.8191 12.3232 56.149 12.4062 56.4022 12.5723C56.6554 12.7383 56.8173 12.9541 56.8878 13.2197H57.9524C57.9026 12.8545 57.7656 12.537 57.5415 12.2672C57.3215 11.9974 57.0289 11.7899 56.6637 11.6447C56.3026 11.4952 55.8876 11.4205 55.4186 11.4205C54.9454 11.4205 54.52 11.5056 54.1423 11.6758C53.7646 11.8459 53.4658 12.0784 53.2458 12.373C53.03 12.6677 52.9221 13.0018 52.9221 13.3754V13.3816C52.9221 13.7012 52.9865 13.9792 53.1151 14.2158C53.2438 14.4482 53.443 14.6454 53.7128 14.8073C53.9825 14.965 54.327 15.0936 54.7462 15.1932L55.7859 15.4423C56.2009 15.5419 56.4998 15.6726 56.6824 15.8345C56.865 15.9922 56.9563 16.1852 56.9563 16.4135V16.4259C56.9563 16.6293 56.8899 16.8098 56.7571 16.9675C56.6243 17.1211 56.4417 17.2435 56.2092 17.3348C55.981 17.422 55.7153 17.4656 55.4124 17.4656C54.9849 17.4656 54.6383 17.3805 54.3727 17.2103C54.1071 17.0402 53.9286 16.816 53.8373 16.538H52.7291C52.7706 16.9073 52.9055 17.229 53.1338 17.5029C53.3662 17.7769 53.6733 17.9906 54.0552 18.1442C54.437 18.2936 54.877 18.3683 55.375 18.3683ZM66.6682 18.3683C67.2368 18.3683 67.7307 18.2251 68.1499 17.9387C68.5732 17.6523 68.9011 17.2498 69.1335 16.731C69.366 16.208 69.4822 15.5979 69.4822 14.9006V14.8882C69.4822 14.1868 69.366 13.5767 69.1335 13.0579C68.9011 12.5391 68.5732 12.1365 68.1499 11.8501C67.7307 11.5637 67.2368 11.4205 66.6682 11.4205C66.3611 11.4205 66.0706 11.4703 65.7966 11.5699C65.5269 11.6654 65.2861 11.8003 65.0745 11.9746C64.8669 12.1489 64.7009 12.3564 64.5764 12.5972H64.4768V8.87427H63.3936V18.25H64.4768V17.1792H64.5764C64.7134 17.4282 64.8856 17.642 65.0931 17.8204C65.3007 17.9948 65.5372 18.1296 65.8029 18.2251C66.0685 18.3206 66.3569 18.3683 66.6682 18.3683ZM66.4192 17.4095C66.0125 17.4095 65.6617 17.3079 65.3671 17.1045C65.0724 16.9011 64.8462 16.6127 64.6885 16.2391C64.5308 15.8615 64.4519 15.4153 64.4519 14.9006V14.8882C64.4519 14.3694 64.5308 13.9232 64.6885 13.5497C64.8462 13.1761 65.0724 12.8877 65.3671 12.6843C65.6617 12.481 66.0125 12.3793 66.4192 12.3793C66.8301 12.3793 67.1808 12.481 67.4713 12.6843C67.7618 12.8835 67.9839 13.1699 68.1375 13.5435C68.2952 13.917 68.374 14.3652 68.374 14.8882V14.9006C68.374 15.4194 68.2952 15.8677 68.1375 16.2454C67.9839 16.6189 67.7618 16.9073 67.4713 17.1107C67.1808 17.3099 66.8301 17.4095 66.4192 17.4095ZM73.9023 18.3683C74.2966 18.3683 74.6515 18.3185 74.9669 18.2189C75.2865 18.1151 75.5625 17.9781 75.7949 17.808C76.0273 17.6337 76.2162 17.4407 76.3615 17.229C76.5109 17.0132 76.6146 16.7911 76.6727 16.5629L76.6852 16.5131H75.6019L75.577 16.5691C75.5189 16.7019 75.4172 16.8326 75.272 16.9613C75.1267 17.09 74.942 17.1958 74.7179 17.2788C74.4938 17.3618 74.2302 17.4033 73.9272 17.4033C73.5205 17.4033 73.1677 17.3141 72.8689 17.1356C72.5701 16.953 72.3397 16.6936 72.1779 16.3574C72.016 16.0171 71.9351 15.6083 71.9351 15.131V14.7014C71.9351 14.1992 72.0181 13.7759 72.1841 13.4314C72.3501 13.0869 72.5742 12.8275 72.8564 12.6532C73.1428 12.4747 73.4666 12.3855 73.8276 12.3855C74.1887 12.3855 74.5083 12.4706 74.7864 12.6407C75.0645 12.8068 75.2823 13.0599 75.4401 13.4003C75.5978 13.7406 75.6766 14.1743 75.6766 14.7014V15.131L76.212 14.3403H71.3872V15.2057H76.7661V14.7823C76.7661 14.1141 76.6478 13.5289 76.4113 13.0267C76.1788 12.5204 75.8427 12.1261 75.4027 11.8439C74.9669 11.5616 74.444 11.4205 73.8339 11.4205C73.2279 11.4205 72.6987 11.5679 72.2463 11.8625C71.7939 12.1572 71.4432 12.566 71.1942 13.089C70.9493 13.6119 70.8269 14.22 70.8269 14.9131V14.9193C70.8269 15.6207 70.9493 16.2308 71.1942 16.7496C71.4432 17.2643 71.796 17.6627 72.2526 17.9449C72.7133 18.2272 73.2632 18.3683 73.9023 18.3683ZM80.7505 18.3683C81.261 18.3683 81.7175 18.2832 82.1201 18.113C82.5269 17.9429 82.8485 17.7063 83.0851 17.4033C83.3217 17.0962 83.4399 16.7434 83.4399 16.345V16.3325C83.4399 15.8511 83.2843 15.4672 82.973 15.1808C82.6659 14.8944 82.1969 14.6744 81.566 14.5209L80.5326 14.2719C80.2711 14.2054 80.0574 14.1287 79.8914 14.0415C79.7253 13.9543 79.6029 13.8527 79.524 13.7365C79.4452 13.6202 79.4058 13.4874 79.4058 13.338V13.3256C79.4058 13.1263 79.4659 12.952 79.5863 12.8026C79.7067 12.6532 79.8706 12.537 80.0781 12.454C80.2856 12.3668 80.5222 12.3232 80.7878 12.3232C81.1946 12.3232 81.5245 12.4062 81.7777 12.5723C82.0309 12.7383 82.1927 12.9541 82.2633 13.2197H83.3279C83.2781 12.8545 83.1411 12.537 82.917 12.2672C82.697 11.9974 82.4044 11.7899 82.0392 11.6447C81.6781 11.4952 81.2631 11.4205 80.7941 11.4205C80.3209 11.4205 79.8955 11.5056 79.5178 11.6758C79.1401 11.8459 78.8413 12.0784 78.6213 12.373C78.4055 12.6677 78.2976 13.0018 78.2976 13.3754V13.3816C78.2976 13.7012 78.3619 13.9792 78.4906 14.2158C78.6193 14.4482 78.8185 14.6454 79.0883 14.8073C79.358 14.965 79.7025 15.0936 80.1217 15.1932L81.1614 15.4423C81.5764 15.5419 81.8752 15.6726 82.0579 15.8345C82.2405 15.9922 82.3318 16.1852 82.3318 16.4135V16.4259C82.3318 16.6293 82.2654 16.8098 82.1326 16.9675C81.9998 17.1211 81.8171 17.2435 81.5847 17.3348C81.3564 17.422 81.0908 17.4656 80.7878 17.4656C80.3604 17.4656 80.0138 17.3805 79.7482 17.2103C79.4825 17.0402 79.3041 16.816 79.2128 16.538H78.1046C78.1461 16.9073 78.281 17.229 78.5093 17.5029C78.7417 17.7769 79.0488 17.9906 79.4307 18.1442C79.8125 18.2936 80.2524 18.3683 80.7505 18.3683ZM87.443 18.2998C87.5509 18.2998 87.6567 18.2936 87.7605 18.2811C87.8643 18.2687 87.968 18.2542 88.0718 18.2375V17.3162C87.9722 17.3245 87.8871 17.3307 87.8165 17.3348C87.7501 17.339 87.6692 17.3411 87.5737 17.3411C87.2251 17.3411 86.9761 17.256 86.8267 17.0858C86.6772 16.9115 86.6025 16.6272 86.6025 16.2329V12.4353H88.0718V11.5388H86.6025V9.80188H85.4819V11.5388H84.4236V12.4353H85.4819V16.5068C85.4819 17.146 85.6355 17.6046 85.9426 17.8827C86.2539 18.1608 86.754 18.2998 87.443 18.2998ZM95.6608 18.2998C95.7687 18.2998 95.8745 18.2936 95.9783 18.2811C96.082 18.2687 96.1858 18.2542 96.2896 18.2375V17.3162C96.1899 17.3245 96.1049 17.3307 96.0343 17.3348C95.9679 17.339 95.887 17.3411 95.7915 17.3411C95.4429 17.3411 95.1938 17.256 95.0444 17.0858C94.895 16.9115 94.8203 16.6272 94.8203 16.2329V12.4353H96.2896V11.5388H94.8203V9.80188H93.6997V11.5388H92.6414V12.4353H93.6997V16.5068C93.6997 17.146 93.8533 17.6046 94.1604 17.8827C94.4717 18.1608 94.9718 18.2998 95.6608 18.2998ZM100.579 18.3683C101.218 18.3683 101.768 18.2292 102.229 17.9512C102.689 17.6689 103.044 17.2684 103.293 16.7496C103.547 16.2308 103.673 15.6145 103.673 14.9006V14.8882C103.673 14.1702 103.547 13.5518 103.293 13.033C103.044 12.5142 102.689 12.1157 102.229 11.8376C101.768 11.5596 101.218 11.4205 100.579 11.4205C99.944 11.4205 99.394 11.5596 98.9292 11.8376C98.4685 12.1157 98.1116 12.5142 97.8584 13.033C97.6094 13.5518 97.4849 14.1702 97.4849 14.8882V14.9006C97.4849 15.6145 97.6094 16.2308 97.8584 16.7496C98.1116 17.2684 98.4685 17.6689 98.9292 17.9512C99.394 18.2292 99.944 18.3683 100.579 18.3683ZM100.579 17.4095C100.156 17.4095 99.7966 17.3099 99.502 17.1107C99.2073 16.9115 98.9811 16.6251 98.8234 16.2516C98.6698 15.8781 98.593 15.4277 98.593 14.9006V14.8882C98.593 14.3569 98.6698 13.9045 98.8234 13.531C98.9811 13.1575 99.2073 12.8732 99.502 12.6781C99.7966 12.4789 100.156 12.3793 100.579 12.3793C101.002 12.3793 101.361 12.4789 101.656 12.6781C101.951 12.8732 102.175 13.1575 102.328 13.531C102.486 13.9045 102.565 14.3569 102.565 14.8882V14.9006C102.565 15.4277 102.486 15.8781 102.328 16.2516C102.175 16.6251 101.951 16.9115 101.656 17.1107C101.361 17.3099 101.002 17.4095 100.579 17.4095ZM110.839 18.25H111.934L114.418 11.5388H113.273L111.436 17.0671H111.337L109.5 11.5388H108.355L110.839 18.25ZM115.875 18.25H116.958V11.5388H115.875V18.25ZM116.423 10.2439C116.631 10.2439 116.807 10.1713 116.952 10.026C117.098 9.87659 117.17 9.7002 117.17 9.49683C117.17 9.28931 117.098 9.11292 116.952 8.96765C116.807 8.82239 116.631 8.74976 116.423 8.74976C116.22 8.74976 116.043 8.82239 115.894 8.96765C115.749 9.11292 115.676 9.28931 115.676 9.49683C115.676 9.7002 115.749 9.87659 115.894 10.026C116.043 10.1713 116.22 10.2439 116.423 10.2439ZM121.304 18.3683C121.814 18.3683 122.271 18.2832 122.674 18.113C123.08 17.9429 123.402 17.7063 123.639 17.4033C123.875 17.0962 123.993 16.7434 123.993 16.345V16.3325C123.993 15.8511 123.838 15.4672 123.526 15.1808C123.219 14.8944 122.75 14.6744 122.12 14.5209L121.086 14.2719C120.825 14.2054 120.611 14.1287 120.445 14.0415C120.279 13.9543 120.156 13.8527 120.078 13.7365C119.999 13.6202 119.959 13.4874 119.959 13.338V13.3256C119.959 13.1263 120.019 12.952 120.14 12.8026C120.26 12.6532 120.424 12.537 120.632 12.454C120.839 12.3668 121.076 12.3232 121.341 12.3232C121.748 12.3232 122.078 12.4062 122.331 12.5723C122.584 12.7383 122.746 12.9541 122.817 13.2197H123.881C123.832 12.8545 123.695 12.537 123.47 12.2672C123.25 11.9974 122.958 11.7899 122.593 11.6447C122.232 11.4952 121.817 11.4205 121.348 11.4205C120.874 11.4205 120.449 11.5056 120.071 11.6758C119.694 11.8459 119.395 12.0784 119.175 12.373C118.959 12.6677 118.851 13.0018 118.851 13.3754V13.3816C118.851 13.7012 118.915 13.9792 119.044 14.2158C119.173 14.4482 119.372 14.6454 119.642 14.8073C119.911 14.965 120.256 15.0936 120.675 15.1932L121.715 15.4423C122.13 15.5419 122.429 15.6726 122.611 15.8345C122.794 15.9922 122.885 16.1852 122.885 16.4135V16.4259C122.885 16.6293 122.819 16.8098 122.686 16.9675C122.553 17.1211 122.371 17.2435 122.138 17.3348C121.91 17.422 121.644 17.4656 121.341 17.4656C120.914 17.4656 120.567 17.3805 120.302 17.2103C120.036 17.0402 119.858 16.816 119.766 16.538H118.658C118.7 16.9073 118.834 17.229 119.063 17.5029C119.295 17.7769 119.602 17.9906 119.984 18.1442C120.366 18.2936 120.806 18.3683 121.304 18.3683ZM125.699 18.25H126.782V11.5388H125.699V18.25ZM126.247 10.2439C126.455 10.2439 126.631 10.1713 126.776 10.026C126.922 9.87659 126.994 9.7002 126.994 9.49683C126.994 9.28931 126.922 9.11292 126.776 8.96765C126.631 8.82239 126.455 8.74976 126.247 8.74976C126.044 8.74976 125.867 8.82239 125.718 8.96765C125.573 9.11292 125.5 9.28931 125.5 9.49683C125.5 9.7002 125.573 9.87659 125.718 10.026C125.867 10.1713 126.044 10.2439 126.247 10.2439ZM131.209 18.2998C131.317 18.2998 131.423 18.2936 131.526 18.2811C131.63 18.2687 131.734 18.2542 131.838 18.2375V17.3162C131.738 17.3245 131.653 17.3307 131.582 17.3348C131.516 17.339 131.435 17.3411 131.34 17.3411C130.991 17.3411 130.742 17.256 130.593 17.0858C130.443 16.9115 130.368 16.6272 130.368 16.2329V12.4353H131.838V11.5388H130.368V9.80188H129.248V11.5388H128.189V12.4353H129.248V16.5068C129.248 17.146 129.401 17.6046 129.708 17.8827C130.02 18.1608 130.52 18.2998 131.209 18.2998ZM139.427 18.2998C139.535 18.2998 139.64 18.2936 139.744 18.2811C139.848 18.2687 139.952 18.2542 140.055 18.2375V17.3162C139.956 17.3245 139.871 17.3307 139.8 17.3348C139.734 17.339 139.653 17.3411 139.557 17.3411C139.209 17.3411 138.96 17.256 138.81 17.0858C138.661 16.9115 138.586 16.6272 138.586 16.2329V12.4353H140.055V11.5388H138.586V9.80188H137.466V11.5388H136.407V12.4353H137.466V16.5068C137.466 17.146 137.619 17.6046 137.926 17.8827C138.238 18.1608 138.738 18.2998 139.427 18.2998ZM141.736 18.25H142.82V14.2781C142.82 13.8838 142.89 13.5455 143.031 13.2633C143.177 12.9811 143.38 12.7632 143.641 12.6096C143.903 12.4561 144.212 12.3793 144.569 12.3793C145.104 12.3793 145.499 12.5266 145.752 12.8213C146.009 13.1118 146.138 13.5601 146.138 14.166V18.25H147.221V13.9045C147.221 13.3733 147.13 12.923 146.947 12.5536C146.765 12.1842 146.499 11.9041 146.15 11.7131C145.802 11.5181 145.376 11.4205 144.874 11.4205C144.38 11.4205 143.973 11.5201 143.654 11.7194C143.334 11.9144 143.089 12.1904 142.919 12.5474H142.82V8.87427H141.736V18.25ZM151.921 18.3683C152.316 18.3683 152.671 18.3185 152.986 18.2189C153.306 18.1151 153.582 17.9781 153.814 17.808C154.046 17.6337 154.235 17.4407 154.38 17.229C154.53 17.0132 154.634 16.7911 154.692 16.5629L154.704 16.5131H153.621L153.596 16.5691C153.538 16.7019 153.436 16.8326 153.291 16.9613C153.146 17.09 152.961 17.1958 152.737 17.2788C152.513 17.3618 152.249 17.4033 151.946 17.4033C151.54 17.4033 151.187 17.3141 150.888 17.1356C150.589 16.953 150.359 16.6936 150.197 16.3574C150.035 16.0171 149.954 15.6083 149.954 15.131V14.7014C149.954 14.1992 150.037 13.7759 150.203 13.4314C150.369 13.0869 150.593 12.8275 150.875 12.6532C151.162 12.4747 151.486 12.3855 151.847 12.3855C152.208 12.3855 152.527 12.4706 152.805 12.6407C153.083 12.8068 153.301 13.0599 153.459 13.4003C153.617 13.7406 153.696 14.1743 153.696 14.7014V15.131L154.231 14.3403H149.406V15.2057H154.785V14.7823C154.785 14.1141 154.667 13.5289 154.43 13.0267C154.198 12.5204 153.862 12.1261 153.422 11.8439C152.986 11.5616 152.463 11.4205 151.853 11.4205C151.247 11.4205 150.718 11.5679 150.265 11.8625C149.813 12.1572 149.462 12.566 149.213 13.089C148.968 13.6119 148.846 14.22 148.846 14.9131V14.9193C148.846 15.6207 148.968 16.2308 149.213 16.7496C149.462 17.2643 149.815 17.6627 150.272 17.9449C150.732 18.2272 151.282 18.3683 151.921 18.3683ZM14.8402 34.4617C15.5084 34.4617 16.0916 34.3517 16.5896 34.1317C17.0876 33.9076 17.4736 33.5922 17.7476 33.1854C18.0215 32.7787 18.1584 32.2952 18.1584 31.7349V31.7286C18.1584 31.297 18.0692 30.9235 17.8907 30.608C17.7164 30.2885 17.4384 30.0187 17.0565 29.7987C16.6747 29.5787 16.1704 29.4003 15.5437 29.2633L14.5476 29.0392C13.9375 28.9064 13.4996 28.7175 13.234 28.4727C12.9684 28.2278 12.8356 27.9269 12.8356 27.5699V27.5637C12.8356 27.2483 12.9227 26.9827 13.097 26.7668C13.2755 26.5469 13.5142 26.3788 13.813 26.2626C14.1118 26.1464 14.448 26.0883 14.8215 26.0883C15.2117 26.0841 15.552 26.1422 15.8425 26.2626C16.1331 26.3829 16.3655 26.5469 16.5398 26.7544C16.7141 26.9578 16.822 27.1923 16.8635 27.4579L16.876 27.5388H17.9966L17.9904 27.4517C17.9613 27.0034 17.8098 26.5988 17.5359 26.2377C17.2661 25.8766 16.9009 25.5902 16.4402 25.3785C15.9795 25.1627 15.4503 25.0548 14.8527 25.0548C14.2343 25.0548 13.6864 25.1627 13.2091 25.3785C12.736 25.5944 12.3645 25.8932 12.0947 26.275C11.8291 26.6569 11.6942 27.0968 11.6901 27.5948V27.6011C11.6901 28.2527 11.8934 28.7881 12.3002 29.2073C12.7111 29.6223 13.3668 29.9294 14.2675 30.1287L15.2635 30.3466C15.882 30.4835 16.3281 30.6807 16.6021 30.938C16.876 31.1912 17.0129 31.5045 17.0129 31.8781V31.8843C17.0129 32.1873 16.9216 32.455 16.739 32.6874C16.5564 32.9198 16.3053 33.1024 15.9857 33.2352C15.6703 33.3639 15.3092 33.4282 14.9025 33.4282C14.4708 33.4282 14.0848 33.368 13.7445 33.2477C13.4083 33.1273 13.1385 32.9592 12.9352 32.7434C12.736 32.5234 12.6218 32.264 12.5928 31.9652L12.5865 31.8967H11.4659L11.4722 31.9652C11.5178 32.4508 11.6818 32.8824 11.964 33.2601C12.2504 33.6337 12.6364 33.9283 13.1219 34.1442C13.6117 34.3558 14.1844 34.4617 14.8402 34.4617ZM21.7319 34.3683C22.0349 34.3683 22.313 34.3268 22.5662 34.2438C22.8193 34.1566 23.0455 34.03 23.2448 33.864C23.4481 33.698 23.6204 33.4967 23.7615 33.2601H23.8611V34.25H24.9443V29.6555C24.9443 29.1907 24.8447 28.7922 24.6455 28.4602C24.4504 28.124 24.162 27.8667 23.7802 27.6882C23.4025 27.5098 22.9397 27.4205 22.3918 27.4205C21.9146 27.4205 21.4891 27.4952 21.1156 27.6447C20.7421 27.7899 20.437 27.9954 20.2004 28.261C19.968 28.5225 19.8228 28.8296 19.7646 29.1824L19.7584 29.2197H20.8417L20.8479 29.201C20.9351 28.9396 21.1073 28.7383 21.3646 28.5972C21.6219 28.4519 21.9519 28.3793 22.3545 28.3793C22.8567 28.3793 23.2323 28.4893 23.4813 28.7092C23.7345 28.925 23.8611 29.2405 23.8611 29.6555V31.7473C23.8611 32.0669 23.7781 32.3533 23.6121 32.6064C23.4502 32.8596 23.2261 33.0609 22.9397 33.2103C22.6533 33.3556 22.3254 33.4282 21.9561 33.4282C21.5659 33.4282 21.2422 33.3348 20.9849 33.1481C20.7275 32.9572 20.5989 32.6915 20.5989 32.3512V32.3387C20.5989 32.0067 20.7151 31.7494 20.9475 31.5668C21.1841 31.3842 21.5576 31.2783 22.0681 31.2493L24.4027 31.0999V30.2345L21.9374 30.3839C21.4186 30.413 20.9766 30.5084 20.6113 30.6703C20.2461 30.8322 19.968 31.0563 19.7771 31.3427C19.5862 31.6249 19.4907 31.9652 19.4907 32.3636V32.3761C19.4907 32.7828 19.5883 33.1356 19.7833 33.4344C19.9825 33.7333 20.2502 33.9636 20.5864 34.1255C20.9268 34.2874 21.3086 34.3683 21.7319 34.3683ZM29.682 34.3683C30.3212 34.3683 30.8711 34.2292 31.3318 33.9512C31.7925 33.6689 32.1473 33.2684 32.3964 32.7496C32.6495 32.2308 32.7761 31.6145 32.7761 30.9006V30.8882C32.7761 30.1702 32.6495 29.5518 32.3964 29.033C32.1473 28.5142 31.7925 28.1157 31.3318 27.8376C30.8711 27.5596 30.3212 27.4205 29.682 27.4205C29.047 27.4205 28.4971 27.5596 28.0322 27.8376C27.5715 28.1157 27.2146 28.5142 26.9614 29.033C26.7124 29.5518 26.5879 30.1702 26.5879 30.8882V30.9006C26.5879 31.6145 26.7124 32.2308 26.9614 32.7496C27.2146 33.2684 27.5715 33.6689 28.0322 33.9512C28.4971 34.2292 29.047 34.3683 29.682 34.3683ZM29.682 33.4095C29.2587 33.4095 28.8997 33.3099 28.605 33.1107C28.3103 32.9115 28.0841 32.6251 27.9264 32.2516C27.7728 31.8781 27.696 31.4277 27.696 30.9006V30.8882C27.696 30.3569 27.7728 29.9045 27.9264 29.531C28.0841 29.1575 28.3103 28.8732 28.605 28.6781C28.8997 28.4789 29.2587 28.3793 29.682 28.3793C30.1053 28.3793 30.4644 28.4789 30.759 28.6781C31.0537 28.8732 31.2778 29.1575 31.4314 29.531C31.5891 29.9045 31.668 30.3569 31.668 30.8882V30.9006C31.668 31.4277 31.5891 31.8781 31.4314 32.2516C31.2778 32.6251 31.0537 32.9115 30.759 33.1107C30.4644 33.3099 30.1053 33.4095 29.682 33.4095ZM40.1036 34.4617C40.6598 34.4617 41.135 34.3538 41.5293 34.1379C41.9236 33.9221 42.2245 33.6129 42.432 33.2103C42.6437 32.8036 42.7495 32.318 42.7495 31.7535V25.2665H41.6289V31.7411C41.6289 32.2889 41.4982 32.7081 41.2367 32.9987C40.9752 33.285 40.5955 33.4282 40.0974 33.4282C39.8027 33.4282 39.5558 33.3722 39.3566 33.2601C39.1573 33.1439 39.0038 32.9924 38.8959 32.8057C38.788 32.6147 38.7216 32.4072 38.6967 32.1831L38.6904 32.1208H37.5698L37.576 32.208C37.601 32.5317 37.6736 32.8306 37.7939 33.1045C37.9143 33.3784 38.0803 33.6171 38.292 33.8204C38.5037 34.0238 38.761 34.1815 39.064 34.2936C39.3669 34.4056 39.7135 34.4617 40.1036 34.4617ZM47.6615 34.3683C48.3007 34.3683 48.8506 34.2292 49.3113 33.9512C49.772 33.6689 50.1268 33.2684 50.3759 32.7496C50.629 32.2308 50.7556 31.6145 50.7556 30.9006V30.8882C50.7556 30.1702 50.629 29.5518 50.3759 29.033C50.1268 28.5142 49.772 28.1157 49.3113 27.8376C48.8506 27.5596 48.3007 27.4205 47.6615 27.4205C47.0265 27.4205 46.4766 27.5596 46.0117 27.8376C45.551 28.1157 45.1941 28.5142 44.9409 29.033C44.6919 29.5518 44.5674 30.1702 44.5674 30.8882V30.9006C44.5674 31.6145 44.6919 32.2308 44.9409 32.7496C45.1941 33.2684 45.551 33.6689 46.0117 33.9512C46.4766 34.2292 47.0265 34.3683 47.6615 34.3683ZM47.6615 33.4095C47.2382 33.4095 46.8792 33.3099 46.5845 33.1107C46.2898 32.9115 46.0636 32.6251 45.9059 32.2516C45.7523 31.8781 45.6755 31.4277 45.6755 30.9006V30.8882C45.6755 30.3569 45.7523 29.9045 45.9059 29.531C46.0636 29.1575 46.2898 28.8732 46.5845 28.6781C46.8792 28.4789 47.2382 28.3793 47.6615 28.3793C48.0848 28.3793 48.4438 28.4789 48.7385 28.6781C49.0332 28.8732 49.2573 29.1575 49.4109 29.531C49.5686 29.9045 49.6475 30.3569 49.6475 30.8882V30.9006C49.6475 31.4277 49.5686 31.8781 49.4109 32.2516C49.2573 32.6251 49.0332 32.9115 48.7385 33.1107C48.4438 33.3099 48.0848 33.4095 47.6615 33.4095ZM52.4365 34.25H53.5198V30.0913C53.5198 29.7634 53.5945 29.4771 53.7439 29.2322C53.8975 28.9873 54.1071 28.7964 54.3727 28.6594C54.6383 28.5225 54.9434 28.454 55.2878 28.454C55.4082 28.454 55.5203 28.4602 55.624 28.4727C55.7319 28.481 55.8419 28.4955 55.954 28.5162V27.4641C55.9 27.4558 55.8212 27.4475 55.7174 27.4392C55.6178 27.4268 55.5161 27.4205 55.4124 27.4205C54.96 27.4205 54.5802 27.5181 54.2731 27.7131C53.9659 27.9082 53.748 28.1821 53.6194 28.5349H53.5198V27.5388H52.4365V34.25ZM59.8699 36.6157C60.48 36.6157 61.0092 36.514 61.4574 36.3107C61.9056 36.1115 62.2501 35.8271 62.4908 35.4578C62.7357 35.0884 62.8582 34.6547 62.8582 34.1566V27.5388H61.7749V28.647H61.7002C61.5632 28.3938 61.391 28.1759 61.1835 27.9933C60.9801 27.8107 60.7456 27.6696 60.48 27.5699C60.2144 27.4703 59.9238 27.4205 59.6084 27.4205C59.0232 27.4205 58.5189 27.5616 58.0956 27.8439C57.6722 28.1219 57.3444 28.5059 57.1119 28.9956C56.8837 29.4812 56.7695 30.0374 56.7695 30.6641V30.6765C56.7695 31.3032 56.8837 31.8594 57.1119 32.345C57.3402 32.8306 57.6639 33.2124 58.0831 33.4905C58.5065 33.7644 59.0066 33.9014 59.5835 33.9014C59.8906 33.9014 60.177 33.8578 60.4426 33.7706C60.7083 33.6793 60.9469 33.5465 61.1586 33.3722C61.3702 33.1979 61.5466 32.9883 61.6877 32.7434H61.7874V34.1006C61.7874 34.5945 61.6172 34.9763 61.2769 35.2461C60.9407 35.52 60.4717 35.657 59.8699 35.657C59.3884 35.657 59.0024 35.574 58.7119 35.408C58.4214 35.2461 58.2471 35.0386 58.189 34.7854L58.1827 34.7792H57.0621L57.0497 34.7854C57.1078 35.1506 57.2551 35.4702 57.4917 35.7441C57.7324 36.0222 58.0541 36.236 58.4567 36.3854C58.8593 36.5389 59.3303 36.6157 59.8699 36.6157ZM59.8201 32.9426C59.405 32.9426 59.0522 32.8472 58.7617 32.6562C58.4753 32.4612 58.2554 32.1935 58.1018 31.8531C57.9524 31.5128 57.8777 31.1206 57.8777 30.6765V30.6641C57.8777 30.22 57.9524 29.8257 58.1018 29.4812C58.2554 29.1367 58.4753 28.8669 58.7617 28.6719C59.0522 28.4768 59.405 28.3793 59.8201 28.3793C60.2351 28.3793 60.59 28.4768 60.8846 28.6719C61.1835 28.8669 61.4117 29.1367 61.5695 29.4812C61.7313 29.8257 61.8123 30.22 61.8123 30.6641V30.6765C61.8123 31.1206 61.7313 31.5128 61.5695 31.8531C61.4117 32.1935 61.1835 32.4612 60.8846 32.6562C60.59 32.8472 60.2351 32.9426 59.8201 32.9426ZM67.6145 34.3683C68.0088 34.3683 68.3636 34.3185 68.6791 34.2189C68.9987 34.1151 69.2747 33.9781 69.5071 33.808C69.7395 33.6337 69.9283 33.4407 70.0736 33.229C70.223 33.0132 70.3268 32.7911 70.3849 32.5629L70.3973 32.5131H69.3141L69.2892 32.5691C69.2311 32.7019 69.1294 32.8326 68.9841 32.9613C68.8389 33.09 68.6542 33.1958 68.4301 33.2788C68.2059 33.3618 67.9424 33.4033 67.6394 33.4033C67.2327 33.4033 66.8799 33.3141 66.5811 33.1356C66.2822 32.953 66.0519 32.6936 65.89 32.3574C65.7281 32.0171 65.6472 31.6083 65.6472 31.131V30.7014C65.6472 30.1992 65.7302 29.7759 65.8962 29.4314C66.0623 29.0869 66.2864 28.8275 66.5686 28.6532C66.855 28.4747 67.1787 28.3855 67.5398 28.3855C67.9009 28.3855 68.2205 28.4706 68.4985 28.6407C68.7766 28.8068 68.9945 29.0599 69.1522 29.4003C69.3099 29.7406 69.3888 30.1743 69.3888 30.7014V31.131L69.9242 30.3403H65.0994V31.2057H70.4783V30.7823C70.4783 30.1141 70.36 29.5289 70.1234 29.0267C69.891 28.5204 69.5548 28.1261 69.1149 27.8439C68.6791 27.5616 68.1561 27.4205 67.546 27.4205C66.9401 27.4205 66.4109 27.5679 65.9585 27.8625C65.5061 28.1572 65.1554 28.566 64.9064 29.089C64.6615 29.6119 64.5391 30.22 64.5391 30.9131V30.9193C64.5391 31.6207 64.6615 32.2308 64.9064 32.7496C65.1554 33.2643 65.5082 33.6627 65.9647 33.9449C66.4254 34.2272 66.9753 34.3683 67.6145 34.3683ZM79.4991 34.4617C80.1383 34.4617 80.7111 34.3496 81.2174 34.1255C81.7279 33.9014 82.1492 33.588 82.4812 33.1854C82.8132 32.7787 83.0291 32.3014 83.1287 31.7535V31.7411H81.9956L81.9832 31.7535C81.8918 32.098 81.73 32.3969 81.4976 32.65C81.2651 32.899 80.9788 33.092 80.6384 33.229C80.2981 33.3618 79.9183 33.4282 79.4991 33.4282C78.9222 33.4282 78.4221 33.2788 77.9988 32.98C77.5796 32.6812 77.2559 32.2578 77.0276 31.71C76.7993 31.1621 76.6852 30.5146 76.6852 29.7676V29.7551C76.6852 29.0039 76.7993 28.3544 77.0276 27.8065C77.2559 27.2587 77.5796 26.8353 77.9988 26.5365C78.4221 26.2377 78.9202 26.0883 79.4929 26.0883C79.908 26.0883 80.2836 26.165 80.6198 26.3186C80.9601 26.4722 81.2485 26.6901 81.4851 26.9723C81.7217 27.2504 81.8898 27.5824 81.9894 27.9684L81.9956 27.9808H83.1224L83.1287 27.9684C83.0415 27.3956 82.8298 26.8914 82.4937 26.4556C82.1575 26.0156 81.73 25.6732 81.2112 25.4283C80.6965 25.1793 80.1238 25.0548 79.4929 25.0548C78.6794 25.0548 77.976 25.2457 77.3824 25.6276C76.7931 26.0094 76.3365 26.551 76.0128 27.2524C75.6932 27.9539 75.5334 28.7881 75.5334 29.7551V29.7676C75.5334 30.7305 75.6932 31.5626 76.0128 32.264C76.3365 32.9655 76.7952 33.5071 77.3887 33.8889C77.9822 34.2708 78.6857 34.4617 79.4991 34.4617ZM86.7146 34.3683C87.0176 34.3683 87.2957 34.3268 87.5488 34.2438C87.802 34.1566 88.0282 34.03 88.2274 33.864C88.4308 33.698 88.603 33.4967 88.7441 33.2601H88.8438V34.25H89.927V29.6555C89.927 29.1907 89.8274 28.7922 89.6282 28.4602C89.4331 28.124 89.1447 27.8667 88.7628 27.6882C88.3851 27.5098 87.9224 27.4205 87.3745 27.4205C86.8972 27.4205 86.4718 27.4952 86.0983 27.6447C85.7247 27.7899 85.4197 27.9954 85.1831 28.261C84.9507 28.5225 84.8054 28.8296 84.7473 29.1824L84.7411 29.2197H85.8243L85.8306 29.201C85.9177 28.9396 86.09 28.7383 86.3473 28.5972C86.6046 28.4519 86.9346 28.3793 87.3372 28.3793C87.8394 28.3793 88.215 28.4893 88.464 28.7092C88.7172 28.925 88.8438 29.2405 88.8438 29.6555V31.7473C88.8438 32.0669 88.7607 32.3533 88.5947 32.6064C88.4329 32.8596 88.2087 33.0609 87.9224 33.2103C87.636 33.3556 87.3081 33.4282 86.9387 33.4282C86.5486 33.4282 86.2249 33.3348 85.9675 33.1481C85.7102 32.9572 85.5815 32.6915 85.5815 32.3512V32.3387C85.5815 32.0067 85.6978 31.7494 85.9302 31.5668C86.1667 31.3842 86.5403 31.2783 87.0508 31.2493L89.3854 31.0999V30.2345L86.92 30.3839C86.4012 30.413 85.9592 30.5084 85.594 30.6703C85.2288 30.8322 84.9507 31.0563 84.7598 31.3427C84.5688 31.6249 84.4734 31.9652 84.4734 32.3636V32.3761C84.4734 32.7828 84.5709 33.1356 84.766 33.4344C84.9652 33.7333 85.2329 33.9636 85.5691 34.1255C85.9094 34.2874 86.2913 34.3683 86.7146 34.3683ZM94.2102 34.3683C94.7207 34.3683 95.1772 34.2832 95.5798 34.113C95.9866 33.9429 96.3082 33.7063 96.5448 33.4033C96.7814 33.0962 96.8997 32.7434 96.8997 32.345V32.3325C96.8997 31.8511 96.744 31.4672 96.4327 31.1808C96.1256 30.8944 95.6566 30.6744 95.0258 30.5209L93.9923 30.2719C93.7308 30.2054 93.5171 30.1287 93.3511 30.0415C93.1851 29.9543 93.0626 29.8527 92.9838 29.7365C92.9049 29.6202 92.8655 29.4874 92.8655 29.338V29.3256C92.8655 29.1263 92.9257 28.952 93.046 28.8026C93.1664 28.6532 93.3303 28.537 93.5378 28.454C93.7454 28.3668 93.9819 28.3232 94.2476 28.3232C94.6543 28.3232 94.9843 28.4062 95.2374 28.5723C95.4906 28.7383 95.6525 28.9541 95.723 29.2197H96.7876C96.7378 28.8545 96.6008 28.537 96.3767 28.2672C96.1567 27.9974 95.8641 27.7899 95.4989 27.6447C95.1378 27.4952 94.7228 27.4205 94.2538 27.4205C93.7806 27.4205 93.3552 27.5056 92.9775 27.6758C92.5999 27.8459 92.301 28.0784 92.0811 28.373C91.8652 28.6677 91.7573 29.0018 91.7573 29.3754V29.3816C91.7573 29.7012 91.8217 29.9792 91.9503 30.2158C92.079 30.4482 92.2782 30.6454 92.548 30.8073C92.8177 30.965 93.1622 31.0936 93.5814 31.1932L94.6211 31.4423C95.0361 31.5419 95.335 31.6726 95.5176 31.8345C95.7002 31.9922 95.7915 32.1852 95.7915 32.4135V32.4259C95.7915 32.6293 95.7251 32.8098 95.5923 32.9675C95.4595 33.1211 95.2769 33.2435 95.0444 33.3348C94.8162 33.422 94.5505 33.4656 94.2476 33.4656C93.8201 33.4656 93.4735 33.3805 93.2079 33.2103C92.9423 33.0402 92.7638 32.816 92.6725 32.538H91.5643C91.6058 32.9073 91.7407 33.229 91.969 33.5029C92.2014 33.7769 92.5085 33.9906 92.8904 34.1442C93.2722 34.2936 93.7122 34.3683 94.2102 34.3683ZM100.903 34.2998C101.011 34.2998 101.116 34.2936 101.22 34.2811C101.324 34.2687 101.428 34.2542 101.531 34.2375V33.3162C101.432 33.3245 101.347 33.3307 101.276 33.3348C101.21 33.339 101.129 33.3411 101.033 33.3411C100.685 33.3411 100.436 33.256 100.286 33.0858C100.137 32.9115 100.062 32.6272 100.062 32.2329V28.4353H101.531V27.5388H100.062V25.8019H98.9417V27.5388H97.8833V28.4353H98.9417V32.5068C98.9417 33.146 99.0952 33.6046 99.4023 33.8827C99.7136 34.1608 100.214 34.2998 100.903 34.2998ZM103.212 34.25H104.296V24.8743H103.212V34.25ZM109.114 34.3683C109.509 34.3683 109.863 34.3185 110.179 34.2189C110.498 34.1151 110.774 33.9781 111.007 33.808C111.239 33.6337 111.428 33.4407 111.573 33.229C111.723 33.0132 111.827 32.7911 111.885 32.5629L111.897 32.5131H110.814L110.789 32.5691C110.731 32.7019 110.629 32.8326 110.484 32.9613C110.339 33.09 110.154 33.1958 109.93 33.2788C109.706 33.3618 109.442 33.4033 109.139 33.4033C108.732 33.4033 108.38 33.3141 108.081 33.1356C107.782 32.953 107.552 32.6936 107.39 32.3574C107.228 32.0171 107.147 31.6083 107.147 31.131V30.7014C107.147 30.1992 107.23 29.7759 107.396 29.4314C107.562 29.0869 107.786 28.8275 108.068 28.6532C108.355 28.4747 108.678 28.3855 109.04 28.3855C109.401 28.3855 109.72 28.4706 109.998 28.6407C110.276 28.8068 110.494 29.0599 110.652 29.4003C110.81 29.7406 110.889 30.1743 110.889 30.7014V31.131L111.424 30.3403H106.599V31.2057H111.978V30.7823C111.978 30.1141 111.86 29.5289 111.623 29.0267C111.391 28.5204 111.055 28.1261 110.615 27.8439C110.179 27.5616 109.656 27.4205 109.046 27.4205C108.44 27.4205 107.911 27.5679 107.458 27.8625C107.006 28.1572 106.655 28.566 106.406 29.089C106.161 29.6119 106.039 30.22 106.039 30.9131V30.9193C106.039 31.6207 106.161 32.2308 106.406 32.7496C106.655 33.2643 107.008 33.6627 107.464 33.9449C107.925 34.2272 108.475 34.3683 109.114 34.3683ZM115.097 31.4734H116.187V31.0687C116.187 30.8488 116.216 30.6578 116.274 30.496C116.336 30.3341 116.44 30.1826 116.585 30.0415C116.734 29.9004 116.94 29.7531 117.201 29.5995C117.467 29.4376 117.697 29.2529 117.892 29.0454C118.087 28.8379 118.237 28.6034 118.341 28.3419C118.448 28.0763 118.502 27.7816 118.502 27.4579V27.4454C118.502 27.0179 118.39 26.6361 118.166 26.2999C117.946 25.9596 117.637 25.6919 117.239 25.4968C116.844 25.2976 116.386 25.198 115.863 25.198C115.282 25.198 114.794 25.3059 114.4 25.5217C114.005 25.7375 113.705 26.0281 113.497 26.3933C113.29 26.7585 113.173 27.1632 113.148 27.6073V27.6198L114.207 27.6135L114.219 27.6073C114.24 27.3126 114.317 27.0574 114.45 26.8416C114.587 26.6257 114.771 26.4597 115.004 26.3435C115.236 26.2273 115.508 26.1692 115.819 26.1692C116.13 26.1692 116.4 26.2273 116.629 26.3435C116.857 26.4597 117.033 26.6174 117.158 26.8167C117.282 27.0159 117.344 27.2441 117.344 27.5015V27.5139C117.344 27.7339 117.311 27.929 117.245 28.0991C117.178 28.2693 117.071 28.427 116.921 28.5723C116.776 28.7134 116.583 28.8586 116.342 29.0081C116.06 29.1782 115.825 29.3567 115.639 29.5435C115.452 29.7302 115.315 29.9357 115.228 30.1598C115.141 30.3798 115.097 30.6267 115.097 30.9006V31.4734ZM115.726 34.3621C115.979 34.3621 116.184 34.2811 116.342 34.1193C116.504 33.9574 116.585 33.7499 116.585 33.4967C116.585 33.2394 116.504 33.0298 116.342 32.8679C116.184 32.7061 115.979 32.6251 115.726 32.6251C115.473 32.6251 115.265 32.7061 115.103 32.8679C114.941 33.0298 114.86 33.2394 114.86 33.4967C114.86 33.7499 114.941 33.9574 115.103 34.1193C115.265 34.2811 115.473 34.3621 115.726 34.3621Z" fill="white"/>
</svg>
